<?xml version="1.0" encoding="UTF-8"?>
<svg xmlns="http://www.w3.org/2000/svg" xmlns:xlink="http://www.w3.org/1999/xlink" width="28px" height="32px" viewBox="0 0 28 32" version="1.1">
<g id="surface1">
<path style="fill-rule:nonzero;fill:#ff5858;fill-opacity:1;stroke-width:2;stroke-linecap:butt;stroke-linejoin:miter;stroke:rgb(13.72549%,12.156863%,12.54902%);stroke-opacity:1;stroke-miterlimit:10;" d="M 50.856112 108.451348 C 45.613786 109.113713 42.574118 101.010773 42.574118 101.010773 C 42.574118 101.010773 41.186443 72.352416 42.574118 65.70668 C 43.234915 61.931195 46.340663 59.060944 50.151261 58.707682 C 57.838537 57.559581 60.261461 65.331339 60.261461 65.331339 C 60.261461 65.331339 61.164551 96.440449 60.261461 101.121167 C 59.358371 105.823964 56.098437 107.811061 50.856112 108.451348 Z M 50.856112 108.451348 " transform="matrix(0.177343,0,0,0.176923,0.000578078,0)"/>
<path style="fill-rule:nonzero;fill:#ff5858;fill-opacity:1;stroke-width:2;stroke-linecap:butt;stroke-linejoin:miter;stroke:rgb(13.72549%,12.156863%,12.54902%);stroke-opacity:1;stroke-miterlimit:10;" d="M 66.539036 97.919733 C 66.539036 97.919733 66.693222 68.665247 67.22186 61.180514 C 67.728471 54.29191 74.909136 54.313989 74.909136 54.313989 C 81.803455 53.938649 84.424618 62.968901 84.424618 62.968901 L 84.424618 97.96389 C 74.909136 113.794431 66.539036 97.919733 66.539036 97.919733 Z M 66.539036 97.919733 " transform="matrix(0.177343,0,0,0.176923,0.000578078,0)"/>
<path style="fill-rule:nonzero;fill:#ff5858;fill-opacity:1;stroke-width:2;stroke-linecap:butt;stroke-linejoin:miter;stroke:rgb(13.72549%,12.156863%,12.54902%);stroke-opacity:1;stroke-miterlimit:10;" d="M 8.080495 35.061226 C 8.278734 19.054054 24.446243 28.79083 24.446243 28.79083 L 26.626875 32.500078 C 27.001326 33.670258 37.0895 68.091196 37.0895 76.238295 C 37.0895 80.654066 36.759101 90.766183 36.450729 99.244464 L 37.992589 109.400739 C 56.538969 123.222103 64.160165 107.568193 64.160165 107.568193 C 72.442159 112.07228 77.155847 111.785255 79.688904 110.769628 L 79.754983 110.769628 C 80.085382 110.72547 80.239568 110.615076 80.636047 110.504681 L 80.6801 110.504681 C 81.142658 110.394287 81.583189 110.239735 82.001695 110.041025 C 82.376146 109.996868 82.706545 109.886473 83.014917 109.709843 C 83.367342 109.444896 83.719768 109.224108 84.09422 109.003319 C 94.446712 106.331777 92.001761 68.576931 92.001761 68.576931 C 92.001761 68.576931 91.010565 65.662522 95.81236 33.250759 C 97.111928 24.485453 97.816778 18.74495 98.521629 15.035702 L 98.785948 14.660361 C 98.785948 14.572046 99.050267 14.285021 99.777144 13.379788 C 99.975383 13.158999 100.173622 12.93821 100.349835 12.717422 L 100.966579 11.944662 C 102.001828 10.752404 103.125184 9.648461 104.314619 8.654912 C 104.402725 8.588676 104.490832 8.522439 104.578938 8.456202 L 104.622991 8.456202 C 107.882925 5.961292 111.803656 4.680718 114.733191 9.295199 C 116.230998 11.98882 117.200168 14.947386 117.618673 17.994269 C 118.059205 28.857067 113.719968 46.255206 111.627443 56.897216 C 108.30143 73.655068 108.30143 107.546115 108.30143 107.546115 C 108.30143 107.546115 121.209005 96.24174 133.367677 88.602455 C 145.526349 80.941091 149.821532 86.725752 149.821532 86.725752 C 149.821532 86.725752 153.764289 89.46353 151.737844 96.374213 C 150.240037 101.386113 144.469073 109.709843 128.940335 123.200024 C 92.089868 155.302683 94.997376 172.060536 94.997376 172.060536 L 31.626908 173.51774 C 31.626908 173.51774 33.102689 170.978672 33.322955 163.317308 C 33.54322 155.678024 22.419798 129.426262 18.322854 120.683035 C 14.22591 111.939807 17.816243 85.533494 17.816243 85.533494 C 17.816243 85.533494 7.860229 51.39958 8.080495 35.061226 Z M 8.080495 35.061226 " transform="matrix(0.177343,0,0,0.176923,0.000578078,0)"/>
<path style="fill-rule:nonzero;fill:#ff5858;fill-opacity:1;stroke-width:2;stroke-linecap:butt;stroke-linejoin:miter;stroke:rgb(13.72549%,12.156863%,12.54902%);stroke-opacity:1;stroke-miterlimit:10;" d="M 8.212654 39.499076 C 14.886708 40.603019 21.736974 39.587391 27.81631 36.606746 " transform="matrix(0.177343,0,0,0.176923,0.000578078,0)"/>
<path style="fill-rule:nonzero;fill:#ff5858;fill-opacity:1;stroke-width:2;stroke-linecap:butt;stroke-linejoin:miter;stroke:rgb(13.72549%,12.156863%,12.54902%);stroke-opacity:1;stroke-miterlimit:10;" d="M 10.415312 50.096927 C 17.089366 51.20087 23.939632 50.185243 29.996941 47.182518 " transform="matrix(0.177343,0,0,0.176923,0.000578078,0)"/>
<path style="fill-rule:nonzero;fill:#ff5858;fill-opacity:1;stroke-width:2;stroke-linecap:butt;stroke-linejoin:miter;stroke:rgb(13.72549%,12.156863%,12.54902%);stroke-opacity:1;stroke-miterlimit:10;" d="M 12.75013 60.6727 C 19.424183 61.798722 26.274449 60.783094 32.331759 57.78037 " transform="matrix(0.177343,0,0,0.176923,0.000578078,0)"/>
<path style="fill-rule:nonzero;fill:#ff5858;fill-opacity:1;stroke-width:2;stroke-linecap:butt;stroke-linejoin:miter;stroke:rgb(13.72549%,12.156863%,12.54902%);stroke-opacity:1;stroke-miterlimit:10;" d="M 15.151027 71.270552 C 21.82508 72.374495 28.675346 71.358867 34.754682 68.356143 " transform="matrix(0.177343,0,0,0.176923,0.000578078,0)"/>
<path style="fill-rule:nonzero;fill:#ff5858;fill-opacity:1;stroke-width:2;stroke-linecap:butt;stroke-linejoin:miter;stroke:rgb(13.72549%,12.156863%,12.54902%);stroke-opacity:1;stroke-miterlimit:10;" d="M 17.441791 82.530769 C 24.115844 83.634712 30.944084 82.619084 37.001393 79.638439 " transform="matrix(0.177343,0,0,0.176923,0.000578078,0)"/>
<path style="fill-rule:nonzero;fill:#ff5858;fill-opacity:1;stroke-width:2;stroke-linecap:butt;stroke-linejoin:miter;stroke:rgb(13.72549%,12.156863%,12.54902%);stroke-opacity:1;stroke-miterlimit:10;" d="M 17.441791 93.813065 C 24.115844 94.894929 30.944084 93.879302 37.001393 90.898656 " transform="matrix(0.177343,0,0,0.176923,0.000578078,0)"/>
<path style="fill-rule:nonzero;fill:#ff5858;fill-opacity:1;stroke-width:2;stroke-linecap:butt;stroke-linejoin:miter;stroke:rgb(13.72549%,12.156863%,12.54902%);stroke-opacity:1;stroke-miterlimit:10;" d="M 16.516675 103.218658 C 23.190728 104.322601 30.040994 103.306974 36.12033 100.326328 " transform="matrix(0.177343,0,0,0.176923,0.000578078,0)"/>
<path style="fill-rule:nonzero;fill:#ff5858;fill-opacity:1;stroke-width:2;stroke-linecap:butt;stroke-linejoin:miter;stroke:rgb(13.72549%,12.156863%,12.54902%);stroke-opacity:1;stroke-miterlimit:10;" d="M 17.992455 115.273715 C 17.992455 115.273715 29.093851 115.671134 38.741493 110.659233 " transform="matrix(0.177343,0,0,0.176923,0.000578078,0)"/>
<path style="fill-rule:nonzero;fill:#ff5858;fill-opacity:1;stroke-width:2;stroke-linecap:butt;stroke-linejoin:miter;stroke:rgb(13.72549%,12.156863%,12.54902%);stroke-opacity:1;stroke-miterlimit:10;" d="M 42.618171 68.356143 C 42.618171 68.356143 52.309866 71.447183 60.613886 67.671698 " transform="matrix(0.177343,0,0,0.176923,0.000578078,0)"/>
<path style="fill-rule:nonzero;fill:#ff5858;fill-opacity:1;stroke-width:2;stroke-linecap:butt;stroke-linejoin:miter;stroke:rgb(13.72549%,12.156863%,12.54902%);stroke-opacity:1;stroke-miterlimit:10;" d="M 42.287772 78.556575 C 42.287772 78.556575 51.979467 81.625536 60.283487 77.850051 " transform="matrix(0.177343,0,0,0.176923,0.000578078,0)"/>
<path style="fill-rule:nonzero;fill:#ff5858;fill-opacity:1;stroke-width:2;stroke-linecap:butt;stroke-linejoin:miter;stroke:rgb(13.72549%,12.156863%,12.54902%);stroke-opacity:1;stroke-miterlimit:10;" d="M 42.287772 88.006326 C 42.287772 88.006326 51.979467 91.075287 60.283487 87.321881 " transform="matrix(0.177343,0,0,0.176923,0.000578078,0)"/>
<path style="fill-rule:nonzero;fill:#ff5858;fill-opacity:1;stroke-width:2;stroke-linecap:butt;stroke-linejoin:miter;stroke:rgb(13.72549%,12.156863%,12.54902%);stroke-opacity:1;stroke-miterlimit:10;" d="M 42.287772 98.405468 C 42.287772 98.405468 51.979467 101.496508 60.283487 97.721023 " transform="matrix(0.177343,0,0,0.176923,0.000578078,0)"/>
<path style="fill-rule:nonzero;fill:#ff5858;fill-opacity:1;stroke-width:2;stroke-linecap:butt;stroke-linejoin:miter;stroke:rgb(13.72549%,12.156863%,12.54902%);stroke-opacity:1;stroke-miterlimit:10;" d="M 66.38485 65.000156 C 66.38485 65.000156 76.054518 68.069117 84.380565 64.315712 " transform="matrix(0.177343,0,0,0.176923,0.000578078,0)"/>
<path style="fill-rule:nonzero;fill:#ff5858;fill-opacity:1;stroke-width:2;stroke-linecap:butt;stroke-linejoin:miter;stroke:rgb(13.72549%,12.156863%,12.54902%);stroke-opacity:1;stroke-miterlimit:10;" d="M 66.054451 75.200588 C 66.054451 75.200588 75.724119 78.26955 84.050166 74.494065 " transform="matrix(0.177343,0,0,0.176923,0.000578078,0)"/>
<path style="fill-rule:nonzero;fill:#ff5858;fill-opacity:1;stroke-width:2;stroke-linecap:butt;stroke-linejoin:miter;stroke:rgb(13.72549%,12.156863%,12.54902%);stroke-opacity:1;stroke-miterlimit:10;" d="M 66.054451 84.650339 C 66.054451 84.650339 75.724119 87.719301 84.050166 83.965895 " transform="matrix(0.177343,0,0,0.176923,0.000578078,0)"/>
<path style="fill-rule:nonzero;fill:#ff5858;fill-opacity:1;stroke-width:2;stroke-linecap:butt;stroke-linejoin:miter;stroke:rgb(13.72549%,12.156863%,12.54902%);stroke-opacity:1;stroke-miterlimit:10;" d="M 66.054451 95.049481 C 66.054451 95.049481 75.724119 98.118442 84.050166 94.365037 " transform="matrix(0.177343,0,0,0.176923,0.000578078,0)"/>
<path style="fill-rule:nonzero;fill:#ff5858;fill-opacity:1;stroke-width:2;stroke-linecap:butt;stroke-linejoin:miter;stroke:rgb(13.72549%,12.156863%,12.54902%);stroke-opacity:1;stroke-miterlimit:10;" d="M 98.719868 14.660361 C 104.314619 18.281294 111.120832 19.495631 117.618673 17.994269 " transform="matrix(0.177343,0,0,0.176923,0.000578078,0)"/>
<path style="fill-rule:nonzero;fill:#ff5858;fill-opacity:1;stroke-width:2;stroke-linecap:butt;stroke-linejoin:miter;stroke:rgb(13.72549%,12.156863%,12.54902%);stroke-opacity:1;stroke-miterlimit:10;" d="M 97.574486 25.69979 C 103.14721 29.342802 109.97545 30.557139 116.451264 29.077855 " transform="matrix(0.177343,0,0,0.176923,0.000578078,0)"/>
<path style="fill-rule:nonzero;fill:#ff5858;fill-opacity:1;stroke-width:2;stroke-linecap:butt;stroke-linejoin:miter;stroke:rgb(13.72549%,12.156863%,12.54902%);stroke-opacity:1;stroke-miterlimit:10;" d="M 96.098705 36.761298 C 101.67143 40.404309 108.499669 41.618646 114.99751 40.139363 " transform="matrix(0.177343,0,0,0.176923,0.000578078,0)"/>
<path style="fill-rule:nonzero;fill:#ff5858;fill-opacity:1;stroke-width:2;stroke-linecap:butt;stroke-linejoin:miter;stroke:rgb(13.72549%,12.156863%,12.54902%);stroke-opacity:1;stroke-miterlimit:10;" d="M 94.380632 46.078575 C 99.953357 49.721587 106.781596 50.935924 113.279437 49.456641 " transform="matrix(0.177343,0,0,0.176923,0.000578078,0)"/>
<path style="fill-rule:nonzero;fill:#ff5858;fill-opacity:1;stroke-width:2;stroke-linecap:butt;stroke-linejoin:miter;stroke:rgb(13.72549%,12.156863%,12.54902%);stroke-opacity:1;stroke-miterlimit:10;" d="M 92.574452 56.61019 C 98.147177 60.253202 104.975417 61.489618 111.473257 60.010334 " transform="matrix(0.177343,0,0,0.176923,0.000578078,0)"/>
<path style="fill-rule:nonzero;fill:#ff5858;fill-opacity:1;stroke-width:2;stroke-linecap:butt;stroke-linejoin:miter;stroke:rgb(13.72549%,12.156863%,12.54902%);stroke-opacity:1;stroke-miterlimit:10;" d="M 92.089868 68.002881 C 97.662592 71.667971 104.490832 72.882308 111.010699 71.403025 " transform="matrix(0.177343,0,0,0.176923,0.000578078,0)"/>
<path style="fill-rule:nonzero;fill:#ff5858;fill-opacity:1;stroke-width:2;stroke-linecap:butt;stroke-linejoin:miter;stroke:rgb(13.72549%,12.156863%,12.54902%);stroke-opacity:1;stroke-miterlimit:10;" d="M 91.583256 81.559299 C 96.935715 85.180232 103.543689 86.394569 109.843291 84.937365 " transform="matrix(0.177343,0,0,0.176923,0.000578078,0)"/>
<path style="fill-rule:nonzero;fill:#ff5858;fill-opacity:1;stroke-width:2;stroke-linecap:butt;stroke-linejoin:miter;stroke:rgb(13.72549%,12.156863%,12.54902%);stroke-opacity:1;stroke-miterlimit:10;" d="M 90.856379 94.210485 C 96.208838 97.853496 102.816812 99.067833 109.116413 97.610629 " transform="matrix(0.177343,0,0,0.176923,0.000578078,0)"/>
<path style="fill-rule:nonzero;fill:#ff5858;fill-opacity:1;stroke-width:2;stroke-linecap:butt;stroke-linejoin:miter;stroke:rgb(13.72549%,12.156863%,12.54902%);stroke-opacity:1;stroke-miterlimit:10;" d="M 107.310234 108.915004 C 101.142792 110.305972 94.689004 109.334502 89.226412 106.199304 C 89.006147 106.066831 88.719801 106.044752 88.477509 106.177225 C 88.257243 106.28762 88.103057 106.530487 88.08103 106.773354 C 87.486313 114.213929 83.213156 153.359744 93.345383 172.060536 " transform="matrix(0.177343,0,0,0.176923,0.000578078,0)"/>
<path style="fill-rule:nonzero;fill:#ff5858;fill-opacity:1;stroke-width:2;stroke-linecap:butt;stroke-linejoin:miter;stroke:rgb(13.72549%,12.156863%,12.54902%);stroke-opacity:1;stroke-miterlimit:10;" d="M 37.992589 109.400739 C 37.992589 109.400739 53.675514 135.475869 49.490464 173.120321 " transform="matrix(0.177343,0,0,0.176923,0.000578078,0)"/>
<path style="fill-rule:nonzero;fill:#ff5858;fill-opacity:1;stroke-width:2;stroke-linecap:butt;stroke-linejoin:miter;stroke:rgb(13.72549%,12.156863%,12.54902%);stroke-opacity:1;stroke-miterlimit:10;" d="M 64.182192 107.568193 C 64.182192 107.568193 70.085315 142.717734 66.054451 172.722902 " transform="matrix(0.177343,0,0,0.176923,0.000578078,0)"/>
<path style="fill-rule:nonzero;fill:#ff5858;fill-opacity:1;stroke-width:2;stroke-linecap:butt;stroke-linejoin:miter;stroke:rgb(13.72549%,12.156863%,12.54902%);stroke-opacity:1;stroke-miterlimit:10;" d="M 108.279403 107.568193 C 106.407144 119.733644 106.363091 132.097804 108.169271 144.263254 " transform="matrix(0.177343,0,0,0.176923,0.000578078,0)"/>
<path style="fill-rule:nonzero;fill:#ff5858;fill-opacity:1;stroke-width:2;stroke-linecap:butt;stroke-linejoin:miter;stroke:rgb(13.72549%,12.156863%,12.54902%);stroke-opacity:1;stroke-miterlimit:10;" d="M 135.570335 87.321881 C 135.570335 87.321881 132.50864 100.326328 147.861166 103.660236 " transform="matrix(0.177343,0,0,0.176923,0.000578078,0)"/>
<path style="fill-rule:nonzero;fill:#ff5858;fill-opacity:1;stroke-width:2;stroke-linecap:butt;stroke-linejoin:miter;stroke:rgb(13.72549%,12.156863%,12.54902%);stroke-opacity:1;stroke-miterlimit:10;" d="M 122.376414 96.219661 C 122.376414 96.219661 119.380799 110.548839 136.649637 116.223105 " transform="matrix(0.177343,0,0,0.176923,0.000578078,0)"/>
<path style="fill-rule:nonzero;fill:#ff5858;fill-opacity:1;stroke-width:2;stroke-linecap:butt;stroke-linejoin:miter;stroke:rgb(13.72549%,12.156863%,12.54902%);stroke-opacity:1;stroke-miterlimit:10;" d="M 21.142256 126.865115 C 28.961692 128.69766 37.199633 127.461244 44.138005 123.376655 " transform="matrix(0.177343,0,0,0.176923,0.000578078,0)"/>
<path style="fill-rule:nonzero;fill:#ff5858;fill-opacity:1;stroke-width:2;stroke-linecap:butt;stroke-linejoin:miter;stroke:rgb(13.72549%,12.156863%,12.54902%);stroke-opacity:1;stroke-miterlimit:10;" d="M 43.7195 123.906548 C 51.538936 125.761172 59.776876 124.502677 66.715249 120.418088 " transform="matrix(0.177343,0,0,0.176923,0.000578078,0)"/>
<path style="fill-rule:nonzero;fill:#ff5858;fill-opacity:1;stroke-width:2;stroke-linecap:butt;stroke-linejoin:miter;stroke:rgb(13.72549%,12.156863%,12.54902%);stroke-opacity:1;stroke-miterlimit:10;" d="M 64.820963 121.74282 C 72.662425 123.597444 80.900366 122.338949 87.838738 118.25436 " transform="matrix(0.177343,0,0,0.176923,0.000578078,0)"/>
<path style="fill-rule:nonzero;fill:#ff5858;fill-opacity:1;stroke-width:2;stroke-linecap:butt;stroke-linejoin:miter;stroke:rgb(13.72549%,12.156863%,12.54902%);stroke-opacity:1;stroke-miterlimit:10;" d="M 86.561196 119.005042 C 93.741861 121.389558 101.60535 120.705114 108.279403 117.128339 " transform="matrix(0.177343,0,0,0.176923,0.000578078,0)"/>
<path style="fill-rule:nonzero;fill:#ff5858;fill-opacity:1;stroke-width:2;stroke-linecap:butt;stroke-linejoin:miter;stroke:rgb(13.72549%,12.156863%,12.54902%);stroke-opacity:1;stroke-miterlimit:10;" d="M 107.134021 116.090632 C 114.821297 119.601171 123.235451 121.301243 131.67163 120.992139 " transform="matrix(0.177343,0,0,0.176923,0.000578078,0)"/>
<path style="fill-rule:nonzero;fill:#ff5858;fill-opacity:1;stroke-width:2;stroke-linecap:butt;stroke-linejoin:miter;stroke:rgb(13.72549%,12.156863%,12.54902%);stroke-opacity:1;stroke-miterlimit:10;" d="M 86.671329 133.930349 C 93.609702 135.784973 100.988606 134.504399 106.869702 130.44189 " transform="matrix(0.177343,0,0,0.176923,0.000578078,0)"/>
<path style="fill-rule:nonzero;fill:#ff5858;fill-opacity:1;stroke-width:2;stroke-linecap:butt;stroke-linejoin:miter;stroke:rgb(13.72549%,12.156863%,12.54902%);stroke-opacity:1;stroke-miterlimit:10;" d="M 106.869702 131.104255 C 106.869702 131.104255 115.592228 134.769346 124.33678 127.35085 " transform="matrix(0.177343,0,0,0.176923,0.000578078,0)"/>
<path style="fill-rule:nonzero;fill:#ff5858;fill-opacity:1;stroke-width:2;stroke-linecap:butt;stroke-linejoin:miter;stroke:rgb(13.72549%,12.156863%,12.54902%);stroke-opacity:1;stroke-miterlimit:10;" d="M 86.671329 151.041464 C 86.671329 151.041464 96.979768 156.737809 107.310234 145.190566 " transform="matrix(0.177343,0,0,0.176923,0.000578078,0)"/>
<path style="fill-rule:nonzero;fill:#ff5858;fill-opacity:1;stroke-width:2;stroke-linecap:butt;stroke-linejoin:miter;stroke:rgb(13.72549%,12.156863%,12.54902%);stroke-opacity:1;stroke-miterlimit:10;" d="M 66.494983 134.990134 C 73.455382 137.220099 81.032525 136.336945 87.3101 132.605618 " transform="matrix(0.177343,0,0,0.176923,0.000578078,0)"/>
<path style="fill-rule:nonzero;fill:#ff5858;fill-opacity:1;stroke-width:2;stroke-linecap:butt;stroke-linejoin:miter;stroke:rgb(13.72549%,12.156863%,12.54902%);stroke-opacity:1;stroke-miterlimit:10;" d="M 67.376046 152.520747 C 73.961993 154.993579 81.296844 154.39745 87.37618 150.886912 " transform="matrix(0.177343,0,0,0.176923,0.000578078,0)"/>
<path style="fill-rule:nonzero;fill:#ff5858;fill-opacity:1;stroke-width:2;stroke-linecap:butt;stroke-linejoin:miter;stroke:rgb(13.72549%,12.156863%,12.54902%);stroke-opacity:1;stroke-miterlimit:10;" d="M 47.00146 138.16949 C 53.89578 140.002035 61.252657 138.721461 67.111727 134.68103 " transform="matrix(0.177343,0,0,0.176923,0.000578078,0)"/>
<path style="fill-rule:nonzero;fill:#ff5858;fill-opacity:1;stroke-width:2;stroke-linecap:butt;stroke-linejoin:miter;stroke:rgb(13.72549%,12.156863%,12.54902%);stroke-opacity:1;stroke-miterlimit:10;" d="M 48.873719 155.258525 C 55.173321 156.605336 61.759268 155.700103 67.464152 152.697378 " transform="matrix(0.177343,0,0,0.176923,0.000578078,0)"/>
<path style="fill-rule:nonzero;fill:#ff5858;fill-opacity:1;stroke-width:2;stroke-linecap:butt;stroke-linejoin:miter;stroke:rgb(13.72549%,12.156863%,12.54902%);stroke-opacity:1;stroke-miterlimit:10;" d="M 26.186343 140.399454 C 33.807539 142.254078 41.847241 140.995583 48.543321 136.910995 " transform="matrix(0.177343,0,0,0.176923,0.000578078,0)"/>
<path style="fill-rule:nonzero;fill:#ff5858;fill-opacity:1;stroke-width:2;stroke-linecap:butt;stroke-linejoin:miter;stroke:rgb(13.72549%,12.156863%,12.54902%);stroke-opacity:1;stroke-miterlimit:10;" d="M 32.00136 156.649493 C 38.367041 158.504117 45.26136 157.201465 50.525713 153.161034 " transform="matrix(0.177343,0,0,0.176923,0.000578078,0)"/>
</g>
</svg>
