<?xml version="1.0" encoding="utf-8"?>
<!-- Generator: Adobe Illustrator 26.0.1, SVG Export Plug-In . SVG Version: 6.00 Build 0)  -->
<svg version="1.1" id="Layer_1" xmlns="http://www.w3.org/2000/svg" xmlns:xlink="http://www.w3.org/1999/xlink" x="0px" y="0px"
	 viewBox="0 0 864 864" style="enable-background:new 0 0 864 864;" xml:space="preserve">
<style type="text/css">
	.st0{fill-rule:evenodd;clip-rule:evenodd;fill:#FFFFFF;stroke:#000000;stroke-width:5;stroke-miterlimit:10;}
</style>
<path class="st0" d="M765.5,379.9c1.9-1.7,5.2-2.6,8-2.7c13.3-0.9,26.6-1.2,39.8-2c16.4-1,32.9-2.3,49.8-3.5
	c-0.5-5.9-1.1-10.9-1.3-15.9c-0.2-4.9-2.8-5.8-7-5.5c-21.2,1.3-42.5,2.7-63.7,3.5c-10.5,0.4-22.6,2.7-31.3-1.5
	c-73.6-35.4-124.4-90.6-144.2-171.4c-1.2-4.7-0.5-10.6,1.3-15.3c5.5-14.6,12-28.9,18.1-43.3c9-21.3,18.1-42.6,27.3-64.3
	c-6.7-3.3-12.7-6.3-19.4-9.6c-2,4.1-3.7,7.4-5.2,10.8c-12.8,30.1-26,60.1-38.2,90.5c-3.2,8.1-8.2,10.6-15.6,11.2
	c-16.8,1.4-33.5,3.9-50.3,4.2c-30,0.6-59.6-2.8-87.2-15.9c-21.9-10.4-40.1-24.2-48.3-48.8c-5.3-15.9-13-31-19.7-46.4
	c-1-2.3-2.3-4.5-3.7-7c-6.8,3.2-12.8,6.1-19.3,9.2c1.3,3.5,2.3,6.2,3.4,8.8c8.4,19.5,17,38.9,25.2,58.5c1.4,3.4,3,8,1.8,10.9
	c-9,21.8-17.7,43.7-28.3,64.6c-8.4,16.7-23.7,25.7-42.1,29.4c-33.3,6.7-66.9,7.6-100.6,6.2c-10-0.4-20.2-3.6-29.6-7.3
	c-18.6-7.2-36.7-15.7-55.4-23.8c-3,7.2-5.7,13.6-8.6,20.7c22.3,9.7,43.6,18.9,64.9,28.4c3.7,1.6,7.8,3.7,10,6.8
	c8.4,12.1,16.9,24.2,23.6,37.3c7.8,15.2,10.7,31.9,7.7,49.1c-5.7,32.4-25.5,55.2-50.8,74.1c-2.5,1.8-5.9,2.7-9,3.2
	c-39.3,6.2-78.7,12.3-118,18.4c-14.2,2.2-28.4,4.5-42.9,6.8c0.7,5.4,1.6,8.8,1.6,12.4c0.1,7.3,3.2,9.7,10.5,8.5
	c43.4-7.1,86.7-14.1,130.2-20.6c12.2-1.8,25.1-5.1,36.7-2.9c40.4,7.9,75.1,27.8,104.3,56.8c44.3,44.1,69.3,97.9,78.2,159.3
	c2.4,16.5,4.9,33.1-3.8,49.4c-7.3,13.7-12.3,28.7-18.3,43.2c-4.1,10-8.2,20-12.4,30.5c7.1,3,13.2,5.6,20.1,8.4
	c1.5-3.3,2.8-5.9,3.8-8.5c10.3-24.8,20.5-49.6,31-74.3c1.3-3.2,3.1-6.5,5.7-8.7C434,667.4,476,636.4,524,614.4
	c60.2-27.6,122.8-39.2,188.8-29.5c13.2,1.9,24.6,6,34.5,15.6c13.1,12.7,27.6,24,42,36.4c4.9-5.8,9.3-11.1,14.7-17.6
	c-2.2-1.6-4.2-2.9-6-4.4c-15-12.9-30.1-25.7-45-38.8c-2.7-2.4-5.7-5.6-6.6-9c-10.6-38.9-18.5-78.1-14.5-118.8
	C734.3,420.9,745.2,398.1,765.5,379.9z M599.2,206.9c22.3,65.7,63.4,113.1,119.2,149.4c-68.6,15.6-123.3-13.8-139.5-86.2
	c-1.8-7.9-0.6-14.8,2.8-22.1C587.6,235.3,592.7,222.2,599.2,206.9z M614.8,457.2c-13.4-11.5-25-21.2-36.4-31.2
	c-2.2-1.9-4.2-4.2-5.4-6.8c-6.3-13.2,0.2-28.5,14.7-31c15.2-2.5,30.9-2.4,48.6-3.5C623.4,408.1,613.6,429.7,614.8,457.2z
	 M366.8,332.3c4.1,1.2,6.5,1.7,8.7,2.6c16,6.9,32.1,13.3,47.6,21.1c5.6,2.8,9.5,8.9,14.2,13.4c-4.7,4.1-8.8,10.4-14.2,11.9
	c-14.4,4-29.3,5.9-44.1,8.6c-3.7,0.7-7.5,1.1-13.1,1.8C374.7,371.7,375.5,352.8,366.8,332.3z M562.8,385.2l-6.8,23.1L527.3,386
	L562.8,385.2z M562.9,295.9c10.1,27.3,25.6,49.3,48.7,65.8c-14.6,7-31.3,3.4-42.5-10.5C552.8,331.2,548.3,317,562.9,295.9z
	 M514.7,399c4.4,3.9,9.7,10.5,14.5,14.7c-7,1-18.3,5.5-24.5,6.4C506.6,415.4,512.5,404.2,514.7,399z M510.4,359.5
	c-3.4-7.6-5.9-13.3-9-20.1c6.3,0,11.2,0,17.6,0C516,346.4,513.7,352,510.4,359.5z M531.3,368.8c2.9-7.4,8.6-20.2,11.4-27.3
	l24.5,24.5C560.1,366.7,539.2,368,531.3,368.8z M528,310.3c-12.4,11.5-29.6,8.5-39.6-6.5c-8.3-12.5-13.8-26.8-20.5-40.4
	c0.8-0.8,1.6-1.5,2.3-2.3c22,14.3,45.4,23.5,75.4,18.7C539,291.7,535.5,303.2,528,310.3z M471.7,335.5l19.2,31.7L458.2,344
	L471.7,335.5z M446.7,382l5.9-15.1l27.4,12L446.7,382z M490.2,395.5c-3.2,7.6-6.7,21.1-9.5,28c-5.3-5.7-15.4-18.4-21-24.5
	C467.9,397.6,481.4,396.9,490.2,395.5z M442.2,336.1c-6.6-0.9-13.2-2.8-19.5-5.2c-10.7-4.1-21.1-9-31.6-13.7c-2.2-1-4.2-2.3-7.7-4.3
	c28.2-9.2,47-26.3,58.6-53.7c3.1,6.9,5.6,12.1,7.9,17.4c4.6,10.5,9.3,21,13.7,31.6C470.4,324.8,459.9,338.6,442.2,336.1z
	 M445.8,410.6c23.6,9.8,31.7,27.7,21.8,51.1c-5.7,13.6-11.5,27.1-17.3,40.7c-0.8,1.8-1.9,3.4-3.6,6.6c-10.8-40.9-32.5-72.5-67-95.5
	C402.1,410.3,423.3,401.3,445.8,410.6z M477.6,495.7c4.5-10.9,9.1-21.8,13.7-32.6c7.8-18.5,22.1-27.8,42.2-26.7
	c15.3,0.8,29.6,4.4,41.1,15.8c8.5,8.4,18.1,15.8,27.2,23.7c-0.3,0.7-0.7,1.4-1,2.1c-46.6-0.9-90.1,9.8-130.4,35.2
	C472.8,507.4,475.1,501.6,477.6,495.7z M583.8,183.6c-1,3.2-1.5,5.6-2.4,7.8c-7.4,17.7-14.6,35.4-22.4,52.9c-5,11.2-16.1,14-26.6,14
	c-10.6-0.1-22.6-1.1-31.5-6.2c-18.3-10.5-34.9-23.9-52.1-36.2c-0.7-0.5-1.2-1.3-1.6-2.1c-6.8-15.5-13.5-31.1-21.4-49.2
	C477.5,190.7,529.7,190.1,583.8,183.6z M311.6,252.2c39.2-4.8,62.2-29.5,77.4-63.5c3.6-8,7-16,11.1-25.3c1.7,3,2.9,4.8,3.8,6.8
	c5.1,11.6,9,23.9,15.4,34.7c10.1,17.2,7.8,33.7,0.1,50.4c-8,17.7-21.5,29.5-40,35.1c-19,5.8-37.7,7.1-56.6-2.5s-38.8-17.1-58.2-25.6
	c-2.3-1-4.6-2.3-8.6-4.2C276,255.9,293.8,254.3,311.6,252.2z M217.2,414.1c16.5-20.1,28.5-41.2,32.1-66.7c3.6-25.7-3.6-48.9-15-72.9
	c3.5,1.1,5.6,1.6,7.6,2.5c26,11.2,52,22.4,77.9,33.9c28.7,12.8,39.7,53.7,20.9,78.4c-3,4-8.5,7.7-13.4,8.5
	c-35.2,6.1-70.4,11.3-105.7,16.8C220.6,414.8,219.5,414.4,217.2,414.1z M392.4,642.2c-0.6,1.5-1.6,3-3.7,6.7
	c-8.9-47.2-25.6-88.8-52.2-126.2c-26.7-37.6-60.8-66.4-102.7-87.3c14.1-2.3,28.2-4.6,42.4-6.9c17.5-2.8,34.9-5.9,52.4-7.9
	c6.1-0.7,13.1-0.1,18.7,2.3c53.5,23.9,79,66.6,82.1,123.9c0.2,3.4-0.6,7.1-1.9,10.3C415.9,585.6,404.1,613.9,392.4,642.2z
	 M411,655.9c3.2-7.7,6.4-15.5,9.5-23.2c5.5-13.4,12.1-26.4,16.3-40.1c9.4-31.2,32.1-50.2,58.2-66.1c34.7-21.1,72.9-27,113-26.2
	c17.7,0.3,31.4,6,43.9,18.3c14.5,14.1,30.5,26.6,45.8,39.9C588.2,551.4,496.2,592.1,411,655.9z M716.5,543.6
	c-3.2-2.2-5.2-3.3-6.9-4.7c-17.1-14.6-33.7-29.6-51.2-43.7c-21.5-17.3-26.6-39.4-18.4-64.2c5.1-15.2,13.9-29.1,21.5-43.3
	c1.3-2.4,4.9-4.6,7.6-4.8c21.1-1.4,42.3-2.3,64.9-3.4C698.6,431.4,707.8,486.8,716.5,543.6z"/>
</svg>
