<svg width="56" height="55" viewBox="0 0 56 55" fill="none" xmlns="http://www.w3.org/2000/svg">
<path d="M11.9505 43.6426L2.56428 34.3164C1.45148 33.1787 0.757996 31.5762 0.757996 30.0098C0.757996 29.2847 1.16925 28.151 1.4797 27.498L10.1442 9.56259L11.9505 43.6426Z" fill="#01579B"/>
<path d="M44.0847 11.3573L34.6985 2.0311C33.88 1.21385 32.1705 0.236359 30.727 0.236359C29.4852 0.236359 28.2676 0.484738 27.4773 0.953454L10.1483 9.5626L44.0847 11.3573Z" fill="#40C4FF"/>
<path d="M23.1431 54.7636H45.891V45.0768L28.9208 39.6966L13.398 45.0768L23.1431 54.7636Z" fill="#40C4FF"/>
<path d="M10.1483 38.623C10.1483 41.4994 10.5111 42.2085 11.9546 43.6467L13.398 45.0809H45.891L30.0053 27.1455L10.1483 9.56662V38.623Z" fill="#29B6F6"/>
<path d="M39.0287 9.56259H10.1442L45.8869 45.0768H55.636V22.8349L44.0847 11.3573C42.4639 9.73886 41.0204 9.56259 39.0287 9.56259Z" fill="#01579B"/>
<path opacity="0.2" d="M12.3134 44.0032C10.87 42.561 10.5071 41.1428 10.5071 38.623V9.92314L10.1442 9.56259V38.619C10.1483 41.1428 10.1483 41.8399 12.3134 44.0032L13.398 45.0808L12.3134 44.0032Z" fill="white"/>
<path opacity="0.2" d="M55.2772 22.4783V44.7203H45.5281L45.891 45.0768H55.6401V22.8389L55.2772 22.4783Z" fill="#263238"/>
<path opacity="0.2" d="M44.0847 11.3573C42.2945 9.57862 40.8269 9.56259 38.6699 9.56259H10.1483L10.5111 9.92314H38.6739C39.7464 9.92314 42.4679 9.74287 44.0847 11.3573Z" fill="white"/>
<path opacity="0.2" d="M55.2772 22.4783L44.0847 11.3573L34.6984 2.0311C33.88 1.21385 32.1704 0.236359 30.727 0.236359C29.4852 0.236359 28.2676 0.484738 27.4773 0.953454L10.1483 9.5626L1.48373 27.498C1.17328 28.151 0.762024 29.2847 0.762024 30.0098C0.762024 31.5762 1.45551 33.1787 2.56831 34.3164L11.2207 42.8494C11.4264 43.1018 11.6683 43.3582 11.9586 43.6427L12.3215 44.0032L13.406 45.0809L22.7923 54.4071L23.1551 54.7677H45.5402H45.9031V45.0809H55.6522V45.0568V22.8389L55.2772 22.4783Z" fill="url(#paint0_radial_21_23)"/>
<defs>
<radialGradient id="paint0_radial_21_23" cx="0" cy="0" r="1" gradientUnits="userSpaceOnUse" gradientTransform="translate(28.2051 27.5006) scale(27.4431 27.2676)">
<stop stop-color="white" stop-opacity="0.1"/>
<stop offset="1" stop-color="white" stop-opacity="0"/>
</radialGradient>
</defs>
</svg>
