<svg width="19" height="27" viewBox="0 0 19 27" fill="none" xmlns="http://www.w3.org/2000/svg">
<path d="M0.161682 21.8234L3.29181 1.49054C3.33007 1.24118 3.52111 1.04461 3.76621 1.00234C4.01131 0.960066 4.25556 1.08168 4.37275 1.30423L7.60985 7.4334L8.90015 4.93946C9.00007 4.74663 9.19707 4.62589 9.41173 4.62589C9.62638 4.62589 9.82336 4.74663 9.92331 4.93946L18.6591 21.8233H0.161682V21.8234Z" fill="#FFA000"/>
<path d="M10.9755 13.9029L7.60838 7.43048L0.161705 21.8234L10.9755 13.9029Z" fill="#F57C00"/>
<path d="M18.6592 21.8234L16.2618 6.76305C16.2255 6.54677 16.0735 6.36911 15.8676 6.30214C15.6617 6.23517 15.4363 6.29091 15.2834 6.44596L0.161705 21.8232L8.52893 26.5866C9.05436 26.8844 9.69427 26.8844 10.2197 26.5866L18.6592 21.8232V21.8234Z" fill="#FFCA28"/>
<path d="M16.2617 6.76302C16.2255 6.54675 16.0735 6.36908 15.8676 6.30211C15.6617 6.23514 15.4363 6.29089 15.2834 6.44594L12.2821 9.50047L9.92201 4.9394C9.82208 4.74656 9.62508 4.62582 9.41043 4.62582C9.19577 4.62582 8.99879 4.74656 8.89885 4.9394L7.60855 7.43333L4.3713 1.30426C4.25391 1.08165 4.00937 0.960236 3.76398 1.00282C3.5186 1.04541 3.32819 1.24247 3.29036 1.49203L0.161686 21.8234H0.151596L0.161686 21.8351L0.244051 21.8762L15.279 6.59578C15.4319 6.43987 15.6578 6.38384 15.8642 6.45061C16.0707 6.51738 16.223 6.69574 16.2588 6.91264L18.6361 21.838L18.6592 21.8233L16.2618 6.76298L16.2617 6.76302ZM0.189141 21.7955L3.29181 1.63582C3.32961 1.38626 3.52046 1.18919 3.76563 1.14661C4.01081 1.10402 4.25537 1.2254 4.37295 1.44805L7.60985 7.57722L8.90015 5.08328C9.00007 4.89045 9.19707 4.76971 9.41173 4.76971C9.62638 4.76971 9.82336 4.89045 9.92331 5.08328L12.2355 9.5474L0.189005 21.7955H0.189141Z" fill="white" fill-opacity="0.2"/>
<path opacity="0.2" d="M10.2197 26.443C9.69427 26.7408 9.05436 26.7408 8.52893 26.443L0.181919 21.6928L0.161682 21.8234L8.52891 26.5854C9.05434 26.8832 9.69425 26.8832 10.2197 26.5854L18.6592 21.8234L18.6375 21.6885L10.2197 26.4431V26.443Z" fill="#A52714"/>
<path d="M16.2378 6.76612C16.2017 6.54991 16.0501 6.37218 15.845 6.30561C15.6398 6.23903 15.4152 6.29438 15.2629 6.4494L12.2719 9.50239L9.92022 4.94343C9.82063 4.75067 9.62433 4.62997 9.41045 4.62997C9.19657 4.62997 9.00027 4.75067 8.90067 4.94343L7.6147 7.43627L4.38896 1.30975C4.27196 1.08723 4.02829 0.96584 3.78397 1.00844C3.53965 1.05105 3.34946 1.24796 3.3118 1.49746L0.194031 21.8199L8.53202 26.5797C9.05561 26.8774 9.69329 26.8774 10.2169 26.5797L18.6269 21.8199L16.2378 6.76608V6.76612Z" fill="url(#paint0_linear_21_40)"/>
<defs>
<linearGradient id="paint0_linear_21_40" x1="-0.449275" y1="5.39167" x2="22.7026" y2="17.4217" gradientUnits="userSpaceOnUse">
<stop stop-color="white" stop-opacity="0.1"/>
<stop offset="0.14" stop-color="white" stop-opacity="0.08"/>
<stop offset="0.61" stop-color="white" stop-opacity="0.02"/>
<stop offset="1" stop-color="white" stop-opacity="0"/>
</linearGradient>
</defs>
</svg>
