<svg width="51" height="63" viewBox="0 0 51 63" fill="none" xmlns="http://www.w3.org/2000/svg">
<path d="M31.1752 0.962339L50.4572 0.941162L18.1073 33.1647L9.67628 41.52L0.0836792 31.9482L31.1752 0.962339ZM30.9958 29.7341C31.2461 29.4047 31.7065 29.567 32.0559 29.5247L50.4407 29.5294L33.6849 46.2117L24.0428 36.6612L30.9958 29.7341Z" fill="#44D1FD"/>
<path d="M14.4313 46.2283L24.0428 36.6612L33.6849 46.2118L33.7251 46.2541L24.0451 55.8118L14.4313 46.2283V46.2283Z" fill="#1FBCFD"/>
<path d="M24.0451 55.8117L33.7251 46.2541L50.4478 62.9365C44.1487 62.9506 37.852 62.9318 31.5553 62.9459C31.1965 63.0259 30.9746 62.6988 30.7455 62.4965L24.0451 55.8117V55.8117Z" fill="#08589C"/>
</svg>
