<svg width="24" height="27" viewBox="0 0 24 27" fill="none" xmlns="http://www.w3.org/2000/svg">
<path d="M17.3555 20.758L17.6055 21.191L17.3555 20.758ZM6.35545 1.70546L6.60545 2.13848L6.35545 1.70546ZM6.35545 20.758L6.60545 20.325L6.35545 20.758ZM17.3555 1.70546L17.6055 1.27245L17.3555 1.70546ZM13.4055 11.2317C13.4055 12.0878 12.7115 12.7817 11.8555 12.7817V13.7817C13.2638 13.7817 14.4055 12.6401 14.4055 11.2317H13.4055ZM11.8555 12.7817C10.9994 12.7817 10.3055 12.0878 10.3055 11.2317H9.30545C9.30545 12.6401 10.4471 13.7817 11.8555 13.7817V12.7817ZM10.3055 11.2317C10.3055 10.3757 10.9994 9.68174 11.8555 9.68174V8.68174C10.4471 8.68174 9.30545 9.82342 9.30545 11.2317H10.3055ZM11.8555 9.68174C12.7115 9.68174 13.4055 10.3757 13.4055 11.2317H14.4055C14.4055 9.82342 13.2638 8.68174 11.8555 8.68174V9.68174ZM22.3555 11.2317C22.3555 11.6209 22.1508 12.0487 21.656 12.4954C21.1612 12.9421 20.4172 13.3672 19.4553 13.7345C17.5349 14.4677 14.8481 14.9317 11.8555 14.9317V15.9317C14.938 15.9317 17.7512 15.4556 19.812 14.6687C20.8407 14.2759 21.7076 13.796 22.3261 13.2377C22.9445 12.6794 23.3555 12.0024 23.3555 11.2317H22.3555ZM11.8555 14.9317C8.86285 14.9317 6.17605 14.4677 4.25563 13.7345C3.2937 13.3672 2.54969 12.9421 2.05493 12.4954C1.56011 12.0487 1.35545 11.6209 1.35545 11.2317H0.355453C0.355453 12.0024 0.766405 12.6794 1.38485 13.2377C2.00335 13.796 2.87025 14.2759 3.89893 14.6687C5.95973 15.4556 8.77292 15.9317 11.8555 15.9317V14.9317ZM1.35545 11.2317C1.35545 10.8426 1.56011 10.4147 2.05493 9.96806C2.54969 9.52143 3.2937 9.09629 4.25563 8.729C6.17605 7.99575 8.86285 7.53174 11.8555 7.53174V6.53174C8.77292 6.53174 5.95973 7.00794 3.89893 7.79479C2.87025 8.18755 2.00335 8.66744 1.38485 9.22577C0.766405 9.78405 0.355453 10.4611 0.355453 11.2317H1.35545ZM11.8555 7.53174C14.8481 7.53174 17.5349 7.99575 19.4553 8.729C20.4172 9.09629 21.1612 9.52143 21.656 9.96806C22.1508 10.4147 22.3555 10.8426 22.3555 11.2317H23.3555C23.3555 10.4611 22.9445 9.78405 22.3261 9.22577C21.7076 8.66744 20.8407 8.18755 19.812 7.79479C17.7512 7.00794 14.938 6.53174 11.8555 6.53174V7.53174ZM17.1055 20.325C16.7685 20.5196 16.2956 20.5563 15.6613 20.3511C15.0272 20.1459 14.287 19.7142 13.4879 19.0648C11.8927 17.7682 10.1475 15.6734 8.65116 13.0817L7.78513 13.5817C9.3264 16.2513 11.1454 18.4495 12.8572 19.8408C13.7117 20.5353 14.5608 21.0461 15.3535 21.3025C16.1462 21.559 16.938 21.5764 17.6055 21.191L17.1055 20.325ZM8.65116 13.0817C7.15486 10.4901 6.2133 7.93123 5.88811 5.90147C5.72522 4.88478 5.72139 4.02788 5.86081 3.37608C6.00024 2.72422 6.26846 2.33304 6.60545 2.13848L6.10545 1.27245C5.43803 1.65779 5.05719 2.35219 4.88293 3.16692C4.70865 3.98172 4.72651 4.97242 4.9007 6.05967C5.24966 8.2378 6.24387 10.9122 7.78513 13.5817L8.65116 13.0817ZM6.60545 2.13848C6.94245 1.94391 7.41533 1.90721 8.04957 2.1124C8.68375 2.31756 9.42394 2.74932 10.223 3.39873C11.8182 4.69524 13.5634 6.79007 15.0597 9.38174L15.9258 8.88174C14.3845 6.2122 12.5655 4.01399 10.8537 2.62271C9.99919 1.92823 9.15015 1.41742 8.35738 1.16095C7.56467 0.904499 6.77287 0.887117 6.10545 1.27245L6.60545 2.13848ZM15.0597 9.38174C16.556 11.9734 17.4976 14.5323 17.8228 16.562C17.9857 17.5787 17.9895 18.4356 17.8501 19.0874C17.7107 19.7393 17.4424 20.1304 17.1055 20.325L17.6055 21.191C18.2729 20.8057 18.6537 20.1113 18.828 19.2966C19.0023 18.4818 18.9844 17.4911 18.8102 16.4038C18.4612 14.2257 17.467 11.5513 15.9258 8.88174L15.0597 9.38174ZM6.60545 20.325C6.26846 20.1304 6.00024 19.7393 5.86081 19.0874C5.72139 18.4356 5.72522 17.5787 5.88811 16.562C6.2133 14.5323 7.15486 11.9734 8.65116 9.38174L7.78513 8.88174C6.24387 11.5513 5.24966 14.2257 4.9007 16.4038C4.72651 17.4911 4.70865 18.4818 4.88293 19.2966C5.05719 20.1113 5.43803 20.8057 6.10545 21.191L6.60545 20.325ZM8.65116 9.38174C10.1475 6.79007 11.8927 4.69524 13.4879 3.39873C14.287 2.74932 15.0272 2.31756 15.6613 2.1124C16.2956 1.90721 16.7685 1.94391 17.1055 2.13848L17.6055 1.27245C16.938 0.887117 16.1462 0.904499 15.3535 1.16095C14.5608 1.41742 13.7117 1.92823 12.8572 2.62271C11.1454 4.01399 9.3264 6.21219 7.78513 8.88174L8.65116 9.38174ZM17.1055 2.13848C17.4424 2.33304 17.7107 2.72422 17.8501 3.37608C17.9895 4.02788 17.9857 4.88478 17.8228 5.90147C17.4976 7.93123 16.556 10.4901 15.0597 13.0817L15.9258 13.5817C17.467 10.9122 18.4612 8.2378 18.8102 6.05967C18.9844 4.97242 19.0023 3.98172 18.828 3.16692C18.6537 2.35219 18.2729 1.65779 17.6055 1.27245L17.1055 2.13848ZM15.0597 13.0817C13.5634 15.6734 11.8182 17.7682 10.223 19.0648C9.42394 19.7142 8.68375 20.1459 8.04957 20.3511C7.41533 20.5563 6.94245 20.5196 6.60545 20.325L6.10545 21.191C6.77287 21.5764 7.56467 21.559 8.35738 21.3025C9.15015 21.0461 9.99919 20.5353 10.8537 19.8408C12.5655 18.4495 14.3845 16.2513 15.9258 13.5817L15.0597 13.0817Z" fill="#61DAFB"/>
<path d="M3.09182 25.3177V23.1359H3.82903C3.99949 23.1359 4.1394 23.1651 4.24878 23.2233C4.35815 23.2808 4.43912 23.36 4.49168 23.4609C4.54423 23.5617 4.57051 23.6764 4.57051 23.805C4.57051 23.9335 4.54423 24.0475 4.49168 24.1469C4.43912 24.2464 4.35851 24.3245 4.24984 24.3813C4.14118 24.4374 4.00233 24.4655 3.8333 24.4655H3.2367V24.2268H3.82477C3.94125 24.2268 4.035 24.2098 4.10602 24.1757C4.17776 24.1416 4.2296 24.0933 4.26156 24.0308C4.29423 23.9676 4.31057 23.8923 4.31057 23.805C4.31057 23.7176 4.29423 23.6413 4.26156 23.5759C4.22889 23.5106 4.17669 23.4601 4.10496 23.4246C4.03322 23.3884 3.93841 23.3703 3.82051 23.3703H3.35602V25.3177H3.09182ZM4.11881 24.3376L4.65574 25.3177H4.34892L3.82051 24.3376H4.11881ZM5.64517 25.3518C5.4875 25.3518 5.3515 25.317 5.23715 25.2474C5.12351 25.1771 5.0358 25.0791 4.97401 24.9534C4.91293 24.827 4.88239 24.68 4.88239 24.5124C4.88239 24.3447 4.91293 24.197 4.97401 24.0692C5.0358 23.9406 5.12174 23.8405 5.23182 23.7687C5.34262 23.6963 5.47188 23.6601 5.61961 23.6601C5.70483 23.6601 5.789 23.6743 5.87209 23.7027C5.95519 23.7311 6.03083 23.7773 6.09901 23.8412C6.16719 23.9044 6.22152 23.9882 6.26201 24.0926C6.30249 24.197 6.32273 24.3256 6.32273 24.4783V24.5848H5.06137V24.3675H6.06705C6.06705 24.2751 6.04858 24.1927 6.01165 24.1203C5.97543 24.0479 5.92358 23.9907 5.85611 23.9488C5.78935 23.9069 5.71052 23.8859 5.61961 23.8859C5.51946 23.8859 5.43282 23.9108 5.35966 23.9605C5.28722 24.0095 5.23147 24.0734 5.1924 24.1523C5.15334 24.2311 5.13381 24.3156 5.13381 24.4058V24.5507C5.13381 24.6743 5.15512 24.779 5.19773 24.865C5.24105 24.9502 5.30107 25.0152 5.37777 25.0599C5.45448 25.104 5.54361 25.126 5.64517 25.126C5.71123 25.126 5.77088 25.1168 5.82415 25.0983C5.87813 25.0791 5.92465 25.0507 5.96371 25.0131C6.00277 24.9747 6.03296 24.9271 6.05427 24.8703L6.29716 24.9385C6.27159 25.0209 6.22863 25.0933 6.16826 25.1558C6.10789 25.2176 6.03331 25.2659 5.94453 25.3007C5.85576 25.3348 5.75597 25.3518 5.64517 25.3518ZM7.18672 25.3561C7.08303 25.3561 6.98892 25.3366 6.90441 25.2975C6.81989 25.2577 6.75277 25.2006 6.70306 25.126C6.65334 25.0507 6.62848 24.9598 6.62848 24.8533C6.62848 24.7595 6.64695 24.6835 6.68388 24.6253C6.72081 24.5663 6.77017 24.5202 6.83196 24.4868C6.89375 24.4534 6.96194 24.4285 7.03651 24.4122C7.11179 24.3952 7.18743 24.3817 7.26343 24.3717C7.36286 24.3589 7.44347 24.3494 7.50526 24.343C7.56776 24.3359 7.61321 24.3241 7.64162 24.3078C7.67074 24.2915 7.6853 24.2631 7.6853 24.2226V24.2141C7.6853 24.1089 7.65654 24.0273 7.59901 23.969C7.54219 23.9108 7.4559 23.8817 7.34013 23.8817C7.2201 23.8817 7.126 23.9079 7.05782 23.9605C6.98963 24.0131 6.94169 24.0692 6.914 24.1288L6.67536 24.0436C6.71797 23.9442 6.77479 23.8668 6.84581 23.8114C6.91755 23.7552 6.99567 23.7162 7.08019 23.6942C7.16542 23.6714 7.24922 23.6601 7.33161 23.6601C7.38417 23.6601 7.44454 23.6665 7.51272 23.6793C7.58161 23.6913 7.64802 23.7165 7.71194 23.7549C7.77657 23.7932 7.83019 23.8511 7.8728 23.9285C7.91542 24.006 7.93672 24.1097 7.93672 24.2396V25.3177H7.6853V25.0962H7.67252C7.65547 25.1317 7.62706 25.1697 7.58729 25.2101C7.54752 25.2506 7.49461 25.2851 7.42855 25.3135C7.3625 25.3419 7.28189 25.3561 7.18672 25.3561ZM7.22507 25.1302C7.32451 25.1302 7.40831 25.1107 7.4765 25.0717C7.54539 25.0326 7.59723 24.9822 7.63203 24.9204C7.66755 24.8586 7.6853 24.7936 7.6853 24.7254V24.4953C7.67465 24.5081 7.65121 24.5198 7.61499 24.5305C7.57948 24.5404 7.53828 24.5493 7.49141 24.5571C7.44525 24.5642 7.40015 24.5706 7.35611 24.5763C7.31279 24.5812 7.27763 24.5855 7.25064 24.5891C7.1853 24.5976 7.12422 24.6114 7.0674 24.6306C7.0113 24.6491 6.96584 24.6771 6.93104 24.7148C6.89695 24.7517 6.8799 24.8021 6.8799 24.866C6.8799 24.9534 6.91222 25.0195 6.97685 25.0642C7.04219 25.1082 7.12493 25.1302 7.22507 25.1302ZM9.06039 25.3518C8.90698 25.3518 8.77488 25.3156 8.66408 25.2432C8.55329 25.1707 8.46806 25.0709 8.4084 24.9438C8.34874 24.8167 8.31891 24.6714 8.31891 24.5081C8.31891 24.3419 8.34945 24.1952 8.41053 24.0681C8.47232 23.9403 8.55826 23.8405 8.66835 23.7687C8.77914 23.6963 8.9084 23.6601 9.05613 23.6601C9.17119 23.6601 9.27488 23.6814 9.36721 23.724C9.45954 23.7666 9.53518 23.8263 9.59413 23.903C9.65308 23.9797 9.68965 24.0692 9.70386 24.1714H9.45244C9.43326 24.0969 9.39065 24.0308 9.3246 23.9733C9.25925 23.9151 9.17119 23.8859 9.06039 23.8859C8.96238 23.8859 8.87644 23.9115 8.80258 23.9626C8.72942 24.0131 8.67225 24.0844 8.63106 24.1768C8.59058 24.2684 8.57033 24.376 8.57033 24.4996C8.57033 24.626 8.59022 24.7361 8.62999 24.8298C8.67048 24.9236 8.72729 24.9964 8.80045 25.0482C8.87431 25.1001 8.96096 25.126 9.06039 25.126C9.12573 25.126 9.18504 25.1146 9.2383 25.0919C9.29157 25.0692 9.33667 25.0365 9.3736 24.9939C9.41053 24.9513 9.43681 24.9001 9.45244 24.8405H9.70386C9.68965 24.9371 9.6545 25.0241 9.59839 25.1015C9.54299 25.1782 9.46948 25.2393 9.37786 25.2847C9.28695 25.3295 9.18113 25.3518 9.06039 25.3518ZM10.783 23.6814V23.8945H9.93504V23.6814H10.783ZM10.1822 23.2893H10.4336V24.849C10.4336 24.92 10.4439 24.9733 10.4645 25.0088C10.4858 25.0436 10.5128 25.067 10.5455 25.0791C10.5789 25.0905 10.614 25.0962 10.6509 25.0962C10.6786 25.0962 10.7014 25.0947 10.7191 25.0919C10.7369 25.0883 10.7511 25.0855 10.7617 25.0834L10.8129 25.3092C10.7958 25.3156 10.772 25.322 10.7415 25.3284C10.711 25.3355 10.6723 25.3391 10.6254 25.3391C10.5544 25.3391 10.4848 25.3238 10.4166 25.2932C10.3491 25.2627 10.293 25.2162 10.2482 25.1537C10.2042 25.0912 10.1822 25.0124 10.1822 24.9172V23.2893ZM13.7692 23.1359V25.3177H13.5135L12.3246 23.6047H12.3033V25.3177H12.0391V23.1359H12.2948L13.4879 24.8533H13.5093V23.1359H13.7692ZM14.7453 25.3561C14.6416 25.3561 14.5475 25.3366 14.463 25.2975C14.3785 25.2577 14.3114 25.2006 14.2617 25.126C14.2119 25.0507 14.1871 24.9598 14.1871 24.8533C14.1871 24.7595 14.2055 24.6835 14.2425 24.6253C14.2794 24.5663 14.3288 24.5202 14.3906 24.4868C14.4523 24.4534 14.5205 24.4285 14.5951 24.4122C14.6704 24.3952 14.746 24.3817 14.822 24.3717C14.9215 24.3589 15.0021 24.3494 15.0639 24.343C15.1264 24.3359 15.1718 24.3241 15.2002 24.3078C15.2293 24.2915 15.2439 24.2631 15.2439 24.2226V24.2141C15.2439 24.1089 15.2151 24.0273 15.1576 23.969C15.1008 23.9108 15.0145 23.8817 14.8987 23.8817C14.7787 23.8817 14.6846 23.9079 14.6164 23.9605C14.5482 24.0131 14.5003 24.0692 14.4726 24.1288L14.234 24.0436C14.2766 23.9442 14.3334 23.8668 14.4044 23.8114C14.4761 23.7552 14.5543 23.7162 14.6388 23.6942C14.724 23.6714 14.8078 23.6601 14.8902 23.6601C14.9428 23.6601 15.0031 23.6665 15.0713 23.6793C15.1402 23.6913 15.2066 23.7165 15.2705 23.7549C15.3352 23.7932 15.3888 23.8511 15.4314 23.9285C15.474 24.006 15.4953 24.1097 15.4953 24.2396V25.3177H15.2439V25.0962H15.2311C15.2141 25.1317 15.1857 25.1697 15.1459 25.2101C15.1061 25.2506 15.0532 25.2851 14.9871 25.3135C14.9211 25.3419 14.8405 25.3561 14.7453 25.3561ZM14.7837 25.1302C14.8831 25.1302 14.9669 25.1107 15.0351 25.0717C15.104 25.0326 15.1558 24.9822 15.1906 24.9204C15.2261 24.8586 15.2439 24.7936 15.2439 24.7254V24.4953C15.2332 24.5081 15.2098 24.5198 15.1736 24.5305C15.1381 24.5404 15.0969 24.5493 15.05 24.5571C15.0038 24.5642 14.9587 24.5706 14.9147 24.5763C14.8714 24.5812 14.8362 24.5855 14.8092 24.5891C14.7439 24.5976 14.6828 24.6114 14.626 24.6306C14.5699 24.6491 14.5244 24.6771 14.4896 24.7148C14.4555 24.7517 14.4385 24.8021 14.4385 24.866C14.4385 24.9534 14.4708 25.0195 14.5354 25.0642C14.6008 25.1082 14.6835 25.1302 14.7837 25.1302ZM16.6659 23.6814V23.8945H15.8178V23.6814H16.6659ZM16.065 23.2893H16.3164V24.849C16.3164 24.92 16.3267 24.9733 16.3473 25.0088C16.3686 25.0436 16.3956 25.067 16.4283 25.0791C16.4617 25.0905 16.4968 25.0962 16.5338 25.0962C16.5615 25.0962 16.5842 25.0947 16.6019 25.0919C16.6197 25.0883 16.6339 25.0855 16.6446 25.0834L16.6957 25.3092C16.6786 25.3156 16.6549 25.322 16.6243 25.3284C16.5938 25.3355 16.5551 25.3391 16.5082 25.3391C16.4372 25.3391 16.3676 25.3238 16.2994 25.2932C16.2319 25.2627 16.1758 25.2162 16.1311 25.1537C16.087 25.0912 16.065 25.0124 16.065 24.9172V23.2893ZM17.0441 25.3177V23.6814H17.2955V25.3177H17.0441ZM17.1719 23.4087C17.1229 23.4087 17.0806 23.392 17.0451 23.3586C17.0103 23.3252 16.9929 23.2851 16.9929 23.2382C16.9929 23.1913 17.0103 23.1512 17.0451 23.1178C17.0806 23.0844 17.1229 23.0677 17.1719 23.0677C17.2209 23.0677 17.2628 23.0844 17.2976 23.1178C17.3331 23.1512 17.3509 23.1913 17.3509 23.2382C17.3509 23.2851 17.3331 23.3252 17.2976 23.3586C17.2628 23.392 17.2209 23.4087 17.1719 23.4087ZM19.094 23.6814L18.4889 25.3177H18.2332L17.6281 23.6814H17.9009L18.3526 24.9854H18.3696L18.8213 23.6814H19.094ZM20.0534 25.3518C19.8957 25.3518 19.7597 25.317 19.6454 25.2474C19.5317 25.1771 19.444 25.0791 19.3822 24.9534C19.3211 24.827 19.2906 24.68 19.2906 24.5124C19.2906 24.3447 19.3211 24.197 19.3822 24.0692C19.444 23.9406 19.5299 23.8405 19.64 23.7687C19.7508 23.6963 19.8801 23.6601 20.0278 23.6601C20.113 23.6601 20.1972 23.6743 20.2803 23.7027C20.3634 23.7311 20.439 23.7773 20.5072 23.8412C20.5754 23.9044 20.6297 23.9882 20.6702 24.0926C20.7107 24.197 20.7309 24.3256 20.7309 24.4783V24.5848H19.4696V24.3675H20.4753C20.4753 24.2751 20.4568 24.1927 20.4199 24.1203C20.3836 24.0479 20.3318 23.9907 20.2643 23.9488C20.1976 23.9069 20.1187 23.8859 20.0278 23.8859C19.9277 23.8859 19.841 23.9108 19.7679 23.9605C19.6954 24.0095 19.6397 24.0734 19.6006 24.1523C19.5615 24.2311 19.542 24.3156 19.542 24.4058V24.5507C19.542 24.6743 19.5633 24.779 19.6059 24.865C19.6493 24.9502 19.7093 25.0152 19.786 25.0599C19.8627 25.104 19.9518 25.126 20.0534 25.126C20.1194 25.126 20.1791 25.1168 20.2324 25.0983C20.2863 25.0791 20.3329 25.0507 20.3719 25.0131C20.411 24.9747 20.4412 24.9271 20.4625 24.8703L20.7054 24.9385C20.6798 25.0209 20.6368 25.0933 20.5765 25.1558C20.5161 25.2176 20.4415 25.2659 20.3527 25.3007C20.264 25.3348 20.1642 25.3518 20.0534 25.3518Z" fill="#61DAFB"/>
<path d="M3.09182 25.3177H3.04182V25.3677H3.09182V25.3177ZM3.09182 23.1359V23.0859H3.04182V23.1359H3.09182ZM4.24878 23.2233L4.22528 23.2674L4.2255 23.2675L4.24878 23.2233ZM4.49168 23.4609L4.44734 23.484L4.44734 23.484L4.49168 23.4609ZM4.49168 24.1469L4.44747 24.1236L4.44747 24.1236L4.49168 24.1469ZM4.24984 24.3813L4.27278 24.4257L4.27301 24.4256L4.24984 24.3813ZM3.2367 24.4655H3.1867V24.5155H3.2367V24.4655ZM3.2367 24.2268V24.1768H3.1867V24.2268H3.2367ZM4.10602 24.1757L4.08456 24.1305L4.08439 24.1306L4.10602 24.1757ZM4.26156 24.0308L4.21714 24.0079L4.21705 24.0081L4.26156 24.0308ZM4.10496 23.4246L4.08242 23.4693L4.08277 23.4694L4.10496 23.4246ZM3.35602 23.3703V23.3203H3.30602V23.3703H3.35602ZM3.35602 25.3177V25.3677H3.40602V25.3177H3.35602ZM4.11881 24.3376L4.16266 24.3136L4.14843 24.2876H4.11881V24.3376ZM4.65574 25.3177V25.3677H4.74014L4.69959 25.2937L4.65574 25.3177ZM4.34892 25.3177L4.30491 25.3415L4.31907 25.3677H4.34892V25.3177ZM3.82051 24.3376V24.2876H3.73675L3.7765 24.3614L3.82051 24.3376ZM3.14182 25.3177V23.1359H3.04182V25.3177H3.14182ZM3.09182 23.1859H3.82903V23.0859H3.09182V23.1859ZM3.82903 23.1859C3.99422 23.1859 4.12534 23.2142 4.22528 23.2674L4.27228 23.1792C4.15347 23.1159 4.00476 23.0859 3.82903 23.0859V23.1859ZM4.2255 23.2675C4.32669 23.3208 4.39989 23.3929 4.44734 23.484L4.53602 23.4378C4.47834 23.3271 4.38962 23.2409 4.27205 23.179L4.2255 23.2675ZM4.44734 23.484C4.49571 23.5768 4.52051 23.6834 4.52051 23.805H4.62051C4.62051 23.6694 4.59275 23.5466 4.53602 23.4378L4.44734 23.484ZM4.52051 23.805C4.52051 23.9265 4.49571 24.0323 4.44747 24.1236L4.53588 24.1703C4.59276 24.0627 4.62051 23.9405 4.62051 23.805H4.52051ZM4.44747 24.1236C4.40007 24.2132 4.32722 24.2844 4.22668 24.337L4.27301 24.4256C4.3898 24.3646 4.47817 24.2795 4.53588 24.1703L4.44747 24.1236ZM4.2269 24.3369C4.12752 24.3882 3.99723 24.4155 3.8333 24.4155V24.5155C4.00743 24.5155 4.15484 24.4866 4.27278 24.4257L4.2269 24.3369ZM3.8333 24.4155H3.2367V24.5155H3.8333V24.4155ZM3.2867 24.4655V24.2268H3.1867V24.4655H3.2867ZM3.2367 24.2768H3.82477V24.1768H3.2367V24.2768ZM3.82477 24.2768C3.94545 24.2768 4.04744 24.2593 4.12766 24.2208L4.08439 24.1306C4.02256 24.1603 3.93705 24.1768 3.82477 24.1768V24.2768ZM4.12748 24.2209C4.20779 24.1827 4.26846 24.1272 4.30608 24.0536L4.21705 24.0081C4.19075 24.0595 4.14772 24.1005 4.08456 24.1305L4.12748 24.2209ZM4.30598 24.0538C4.34306 23.982 4.36057 23.8985 4.36057 23.805H4.26057C4.26057 23.8861 4.2454 23.9532 4.21714 24.0079L4.30598 24.0538ZM4.36057 23.805C4.36057 23.7114 4.34304 23.6271 4.30628 23.5536L4.21684 23.5983C4.24542 23.6554 4.26057 23.7239 4.26057 23.805H4.36057ZM4.30628 23.5536C4.26827 23.4775 4.20764 23.4197 4.12714 23.3798L4.08277 23.4694C4.14574 23.5006 4.18951 23.5436 4.21684 23.5983L4.30628 23.5536ZM4.12749 23.38C4.04628 23.339 3.94286 23.3203 3.82051 23.3203V23.4203C3.93396 23.4203 4.02017 23.4378 4.08242 23.4693L4.12749 23.38ZM3.82051 23.3203H3.35602V23.4203H3.82051V23.3203ZM3.30602 23.3703V25.3177H3.40602V23.3703H3.30602ZM3.35602 25.2677H3.09182V25.3677H3.35602V25.2677ZM4.07496 24.3617L4.61189 25.3418L4.69959 25.2937L4.16266 24.3136L4.07496 24.3617ZM4.65574 25.2677H4.34892V25.3677H4.65574V25.2677ZM4.39293 25.294L3.86452 24.3139L3.7765 24.3614L4.30491 25.3415L4.39293 25.294ZM3.82051 24.3876H4.11881V24.2876H3.82051V24.3876ZM5.23715 25.2474L5.21084 25.29L5.21115 25.2901L5.23715 25.2474ZM4.97401 24.9534L4.92899 24.9752L4.92914 24.9755L4.97401 24.9534ZM4.97401 24.0692L4.92894 24.0475L4.92889 24.0476L4.97401 24.0692ZM5.23182 23.7687L5.25912 23.8106L5.25918 23.8106L5.23182 23.7687ZM5.87209 23.7027L5.88827 23.6554L5.88827 23.6554L5.87209 23.7027ZM6.09901 23.8412L6.06481 23.8777L6.06502 23.8779L6.09901 23.8412ZM6.26201 24.0926L6.30862 24.0745L6.30862 24.0745L6.26201 24.0926ZM6.32273 24.5848V24.6348H6.37273V24.5848H6.32273ZM5.06137 24.5848H5.01137V24.6348H5.06137V24.5848ZM5.06137 24.3675V24.3175H5.01137V24.3675H5.06137ZM6.06705 24.3675V24.4175H6.11705V24.3675H6.06705ZM6.01165 24.1203L5.96693 24.1427L5.96711 24.143L6.01165 24.1203ZM5.85611 23.9488L5.82953 23.9911L5.82973 23.9913L5.85611 23.9488ZM5.35966 23.9605L5.38768 24.0019L5.38777 24.0019L5.35966 23.9605ZM5.1924 24.1523L5.1476 24.1301L5.1476 24.1301L5.1924 24.1523ZM5.19773 24.865L5.15293 24.8872L5.15316 24.8876L5.19773 24.865ZM5.37777 25.0599L5.35258 25.1031L5.35288 25.1033L5.37777 25.0599ZM5.82415 25.0983L5.84053 25.1455L5.84089 25.1454L5.82415 25.0983ZM5.96371 25.0131L5.99841 25.0491L5.99874 25.0487L5.96371 25.0131ZM6.05427 24.8703L6.06778 24.8222L6.02357 24.8098L6.00745 24.8527L6.05427 24.8703ZM6.29716 24.9385L6.34492 24.9533L6.36015 24.9042L6.31068 24.8903L6.29716 24.9385ZM6.16826 25.1558L6.20402 25.1908L6.20422 25.1906L6.16826 25.1558ZM5.94453 25.3007L5.96246 25.3474L5.96278 25.3473L5.94453 25.3007ZM5.64517 25.3018C5.49502 25.3018 5.36836 25.2688 5.26315 25.2047L5.21115 25.2901C5.33463 25.3653 5.47998 25.4018 5.64517 25.4018V25.3018ZM5.26346 25.2049C5.1582 25.1398 5.07674 25.0491 5.01888 24.9313L4.92914 24.9755C4.99486 25.1092 5.08882 25.2145 5.21084 25.29L5.26346 25.2049ZM5.01903 24.9317C4.9618 24.8132 4.93239 24.6739 4.93239 24.5124H4.83239C4.83239 24.6861 4.86406 24.8408 4.92899 24.9752L5.01903 24.9317ZM4.93239 24.5124C4.93239 24.3508 4.9618 24.2107 5.01912 24.0907L4.92889 24.0476C4.86406 24.1833 4.83239 24.3386 4.83239 24.5124H4.93239ZM5.01907 24.0908C5.07725 23.9698 5.15735 23.877 5.25912 23.8106L5.20453 23.7269C5.08613 23.804 4.99435 23.9114 4.92894 24.0475L5.01907 24.0908ZM5.25918 23.8106C5.36092 23.7441 5.48043 23.7101 5.61961 23.7101V23.6101C5.46333 23.6101 5.32431 23.6485 5.20446 23.7269L5.25918 23.8106ZM5.61961 23.7101C5.69916 23.7101 5.77787 23.7233 5.85592 23.75L5.88827 23.6554C5.80012 23.6252 5.7105 23.6101 5.61961 23.6101V23.7101ZM5.85592 23.75C5.93188 23.776 6.00146 23.8183 6.06481 23.8777L6.13321 23.8047C6.06019 23.7363 5.9785 23.6862 5.88827 23.6554L5.85592 23.75ZM6.06502 23.8779C6.12661 23.935 6.1771 24.0119 6.21539 24.1107L6.30862 24.0745C6.26595 23.9645 6.20777 23.8738 6.133 23.8045L6.06502 23.8779ZM6.21539 24.1107C6.25299 24.2076 6.27273 24.3296 6.27273 24.4783H6.37273C6.37273 24.3215 6.35199 24.1864 6.30862 24.0745L6.21539 24.1107ZM6.27273 24.4783V24.5848H6.37273V24.4783H6.27273ZM6.32273 24.5348H5.06137V24.6348H6.32273V24.5348ZM5.11137 24.5848V24.3675H5.01137V24.5848H5.11137ZM5.06137 24.4175H6.06705V24.3175H5.06137V24.4175ZM6.11705 24.3675C6.11705 24.2683 6.09717 24.178 6.0562 24.0976L5.96711 24.143C5.99999 24.2075 6.01705 24.282 6.01705 24.3675H6.11705ZM6.05637 24.0979C6.0161 24.0174 5.95798 23.9532 5.88249 23.9063L5.82973 23.9913C5.88919 24.0282 5.93476 24.0783 5.96693 24.1427L6.05637 24.0979ZM5.88269 23.9064C5.80681 23.8588 5.71845 23.8359 5.61961 23.8359V23.9359C5.70258 23.9359 5.7719 23.955 5.82953 23.9911L5.88269 23.9064ZM5.61961 23.8359C5.51081 23.8359 5.41407 23.8631 5.33156 23.9192L5.38777 24.0019C5.45156 23.9585 5.52812 23.9359 5.61961 23.9359V23.8359ZM5.33165 23.9191C5.252 23.973 5.19048 24.0435 5.1476 24.1301L5.23721 24.1745C5.27245 24.1033 5.32244 24.046 5.38768 24.0019L5.33165 23.9191ZM5.1476 24.1301C5.10503 24.216 5.08381 24.3081 5.08381 24.4058H5.18381C5.18381 24.3231 5.20165 24.2462 5.23721 24.1745L5.1476 24.1301ZM5.08381 24.4058V24.5507H5.18381V24.4058H5.08381ZM5.08381 24.5507C5.08381 24.6798 5.10606 24.7927 5.15294 24.8872L5.24253 24.8428C5.20418 24.7654 5.18381 24.6687 5.18381 24.5507H5.08381ZM5.15316 24.8876C5.20049 24.9807 5.26694 25.0532 5.35258 25.1031L5.40297 25.0167C5.3352 24.9772 5.28162 24.9197 5.2423 24.8423L5.15316 24.8876ZM5.35288 25.1033C5.43822 25.1523 5.53619 25.176 5.64517 25.176V25.076C5.55103 25.076 5.47073 25.0556 5.40267 25.0166L5.35288 25.1033ZM5.64517 25.176C5.71586 25.176 5.78118 25.1661 5.84053 25.1455L5.80777 25.051C5.76059 25.0674 5.70659 25.076 5.64517 25.076V25.176ZM5.84089 25.1454C5.90119 25.124 5.95393 25.0919 5.99841 25.0491L5.92902 24.9771C5.89536 25.0095 5.85507 25.0342 5.80741 25.0512L5.84089 25.1454ZM5.99874 25.0487C6.04355 25.0047 6.07749 24.9508 6.10108 24.8879L6.00745 24.8527C5.98842 24.9035 5.962 24.9447 5.92868 24.9774L5.99874 25.0487ZM6.04075 24.9184L6.28365 24.9866L6.31068 24.8903L6.06778 24.8222L6.04075 24.9184ZM6.24941 24.9237C6.22618 24.9985 6.18727 25.0642 6.13229 25.1211L6.20422 25.1906C6.26998 25.1225 6.31701 25.0432 6.34492 24.9533L6.24941 24.9237ZM6.13249 25.1209C6.07757 25.1771 6.00916 25.2217 5.92629 25.2542L5.96278 25.3473C6.05747 25.3101 6.13821 25.2581 6.20402 25.1908L6.13249 25.1209ZM5.92661 25.254C5.84441 25.2856 5.75084 25.3018 5.64517 25.3018V25.4018C5.7611 25.4018 5.8671 25.384 5.96246 25.3474L5.92661 25.254ZM6.90441 25.2975L6.88312 25.3427L6.88343 25.3429L6.90441 25.2975ZM6.70306 25.126L6.66133 25.1535L6.66146 25.1537L6.70306 25.126ZM6.68388 24.6253L6.72611 24.6521L6.72625 24.6518L6.68388 24.6253ZM7.03651 24.4122L7.04721 24.4611L7.04755 24.461L7.03651 24.4122ZM7.26343 24.3717L7.25705 24.3221L7.25694 24.3221L7.26343 24.3717ZM7.50526 24.343L7.5104 24.3927L7.5109 24.3926L7.50526 24.343ZM7.64162 24.3078L7.61716 24.2642L7.6167 24.2645L7.64162 24.3078ZM7.59901 23.969L7.56322 24.0039L7.56344 24.0042L7.59901 23.969ZM7.05782 23.9605L7.08834 24.0001L7.08834 24.0001L7.05782 23.9605ZM6.914 24.1288L6.89718 24.1759L6.94014 24.1913L6.95935 24.1499L6.914 24.1288ZM6.67536 24.0436L6.6294 24.0239L6.60845 24.0728L6.65854 24.0907L6.67536 24.0436ZM6.84581 23.8114L6.87657 23.8508L6.87662 23.8507L6.84581 23.8114ZM7.08019 23.6942L7.09279 23.7426L7.09307 23.7425L7.08019 23.6942ZM7.51272 23.6793L7.5035 23.7284L7.50409 23.7285L7.51272 23.6793ZM7.71194 23.7549L7.68621 23.7978L7.68642 23.7979L7.71194 23.7549ZM7.8728 23.9285L7.829 23.9527L7.829 23.9527L7.8728 23.9285ZM7.93672 25.3177V25.3677H7.98672V25.3177H7.93672ZM7.6853 25.3177H7.6353V25.3677H7.6853V25.3177ZM7.6853 25.0962H7.7353V25.0462H7.6853V25.0962ZM7.67252 25.0962V25.0462H7.64106L7.62744 25.0745L7.67252 25.0962ZM7.58729 25.2101L7.62296 25.2452L7.62296 25.2452L7.58729 25.2101ZM7.42855 25.3135L7.4088 25.2676L7.4088 25.2676L7.42855 25.3135ZM7.4765 25.0717L7.45183 25.0282L7.45164 25.0283L7.4765 25.0717ZM7.63203 24.9204L7.58868 24.8955L7.58847 24.8958L7.63203 24.9204ZM7.6853 24.4953H7.7353V24.3572L7.64689 24.4633L7.6853 24.4953ZM7.61499 24.5305L7.62847 24.5786L7.6291 24.5784L7.61499 24.5305ZM7.49141 24.5571L7.49901 24.6065L7.49963 24.6064L7.49141 24.5571ZM7.35611 24.5763L7.36181 24.626L7.36251 24.6259L7.35611 24.5763ZM7.25064 24.5891L7.25711 24.6386L7.25717 24.6386L7.25064 24.5891ZM7.0674 24.6306L7.08304 24.6781L7.08339 24.678L7.0674 24.6306ZM6.93104 24.7148L6.89433 24.6808L6.8943 24.6809L6.93104 24.7148ZM6.97685 25.0642L6.94839 25.1053L6.94891 25.1057L6.97685 25.0642ZM7.18672 25.3061C7.08944 25.3061 7.00261 25.2878 6.92538 25.2521L6.88343 25.3429C6.97524 25.3853 7.07661 25.4061 7.18672 25.4061V25.3061ZM6.9257 25.2523C6.84905 25.2162 6.78911 25.1649 6.74466 25.0983L6.66146 25.1537C6.71644 25.2362 6.79073 25.2993 6.88312 25.3427L6.9257 25.2523ZM6.74478 25.0984C6.70138 25.0327 6.67848 24.9518 6.67848 24.8533H6.57848C6.57848 24.9678 6.6053 25.0687 6.66133 25.1535L6.74478 25.0984ZM6.67848 24.8533C6.67848 24.7657 6.69577 24.6999 6.72611 24.6521L6.64166 24.5985C6.59813 24.6671 6.57848 24.7533 6.57848 24.8533H6.67848ZM6.72625 24.6518C6.75855 24.6003 6.80147 24.5601 6.85573 24.5308L6.8082 24.4428C6.73888 24.4802 6.68308 24.5324 6.64151 24.5987L6.72625 24.6518ZM6.85573 24.5308C6.91307 24.4998 6.9768 24.4765 7.04721 24.4611L7.02581 24.3634C6.94707 24.3806 6.87444 24.407 6.8082 24.4428L6.85573 24.5308ZM7.04755 24.461C7.12134 24.4443 7.19546 24.431 7.26991 24.4213L7.25694 24.3221C7.17941 24.3323 7.10225 24.3461 7.02547 24.3634L7.04755 24.461ZM7.2698 24.4213C7.36904 24.4086 7.4492 24.399 7.5104 24.3927L7.50011 24.2932C7.43774 24.2997 7.35668 24.3093 7.25705 24.3221L7.2698 24.4213ZM7.5109 24.3926C7.5751 24.3853 7.62897 24.3728 7.66655 24.3512L7.6167 24.2645C7.59746 24.2755 7.56042 24.2864 7.49961 24.2933L7.5109 24.3926ZM7.66609 24.3514C7.71458 24.3242 7.7353 24.2766 7.7353 24.2226H7.6353C7.6353 24.2495 7.62691 24.2587 7.61716 24.2642L7.66609 24.3514ZM7.7353 24.2226V24.2141H7.6353V24.2226H7.7353ZM7.7353 24.2141C7.7353 24.0997 7.70378 24.0039 7.63458 23.9339L7.56344 24.0042C7.6093 24.0506 7.6353 24.1182 7.6353 24.2141H7.7353ZM7.6348 23.9341C7.56519 23.8628 7.4636 23.8317 7.34013 23.8317V23.9317C7.44819 23.9317 7.5192 23.9588 7.56322 24.0039L7.6348 23.9341ZM7.34013 23.8317C7.21333 23.8317 7.10709 23.8594 7.02729 23.9209L7.08834 24.0001C7.14491 23.9565 7.22688 23.9317 7.34013 23.9317V23.8317ZM7.02729 23.9209C6.95464 23.9769 6.90061 24.0389 6.86864 24.1078L6.95935 24.1499C6.98278 24.0994 7.02462 24.0492 7.08834 24.0001L7.02729 23.9209ZM6.93081 24.0817L6.69218 23.9965L6.65854 24.0907L6.89718 24.1759L6.93081 24.0817ZM6.72132 24.0633C6.76127 23.9701 6.81341 23.9 6.87656 23.8508L6.81506 23.7719C6.73617 23.8335 6.67467 23.9183 6.6294 24.0239L6.72132 24.0633ZM6.87662 23.8507C6.9432 23.7987 7.01518 23.7628 7.09279 23.7426L7.06758 23.6458C6.97617 23.6696 6.89189 23.7118 6.81501 23.772L6.87662 23.8507ZM7.09307 23.7425C7.17439 23.7208 7.25387 23.7101 7.33161 23.7101V23.6101C7.24458 23.6101 7.15644 23.6221 7.06731 23.6459L7.09307 23.7425ZM7.33161 23.7101C7.38028 23.7101 7.43746 23.716 7.5035 23.7284L7.52193 23.6301C7.45161 23.6169 7.38806 23.6101 7.33161 23.6101V23.7101ZM7.50409 23.7285C7.56655 23.7395 7.6272 23.7624 7.68621 23.7978L7.73766 23.712C7.66883 23.6707 7.59667 23.6432 7.52135 23.63L7.50409 23.7285ZM7.68642 23.7979C7.74212 23.8309 7.78992 23.8817 7.829 23.9527L7.9166 23.9044C7.87045 23.8206 7.81101 23.7555 7.73745 23.7119L7.68642 23.7979ZM7.829 23.9527C7.86608 24.02 7.88672 24.1144 7.88672 24.2396H7.98672C7.98672 24.1049 7.96475 23.9919 7.9166 23.9044L7.829 23.9527ZM7.88672 24.2396V25.3177H7.98672V24.2396H7.88672ZM7.93672 25.2677H7.6853V25.3677H7.93672V25.2677ZM7.7353 25.3177V25.0962H7.6353V25.3177H7.7353ZM7.6853 25.0462H7.67252V25.1462H7.6853V25.0462ZM7.62744 25.0745C7.61357 25.1034 7.58909 25.137 7.55162 25.1751L7.62296 25.2452C7.66503 25.2024 7.69737 25.1599 7.71759 25.1178L7.62744 25.0745ZM7.55162 25.1751C7.51743 25.2099 7.47042 25.2411 7.4088 25.2676L7.44831 25.3594C7.51879 25.3291 7.5776 25.2914 7.62296 25.2452L7.55162 25.1751ZM7.4088 25.2676C7.35066 25.2926 7.27719 25.3061 7.18672 25.3061V25.4061C7.2866 25.4061 7.37435 25.3912 7.44831 25.3594L7.4088 25.2676ZM7.22507 25.1802C7.33095 25.1802 7.42385 25.1594 7.50135 25.115L7.45164 25.0283C7.39278 25.062 7.31806 25.0802 7.22507 25.0802V25.1802ZM7.50116 25.1151C7.57701 25.0721 7.63583 25.0155 7.6756 24.9449L7.58847 24.8958C7.55864 24.9488 7.51377 24.993 7.45183 25.0282L7.50116 25.1151ZM7.67539 24.9453C7.71505 24.8763 7.7353 24.8027 7.7353 24.7254H7.6353C7.6353 24.7845 7.62004 24.8409 7.58868 24.8955L7.67539 24.9453ZM7.7353 24.7254V24.4953H7.6353V24.7254H7.7353ZM7.64689 24.4633C7.64779 24.4622 7.64608 24.4646 7.63737 24.469C7.62918 24.4731 7.61728 24.4777 7.60088 24.4825L7.6291 24.5784C7.64892 24.5726 7.66685 24.566 7.68209 24.5584C7.69683 24.551 7.71216 24.5412 7.72371 24.5273L7.64689 24.4633ZM7.60151 24.4823C7.56814 24.4917 7.52877 24.5002 7.48319 24.5078L7.49963 24.6064C7.5478 24.5984 7.59082 24.5892 7.62847 24.5786L7.60151 24.4823ZM7.48381 24.5077C7.43802 24.5147 7.39333 24.5211 7.34971 24.5267L7.36251 24.6259C7.40697 24.6201 7.45247 24.6137 7.49901 24.6065L7.48381 24.5077ZM7.35041 24.5266C7.30695 24.5316 7.27149 24.5359 7.24412 24.5395L7.25717 24.6386C7.28377 24.6351 7.31862 24.6309 7.36181 24.6259L7.35041 24.5266ZM7.24418 24.5395C7.17591 24.5484 7.11161 24.5629 7.05142 24.5832L7.08339 24.678C7.13683 24.6599 7.19469 24.6468 7.25711 24.6386L7.24418 24.5395ZM7.05177 24.5831C6.98884 24.6038 6.93572 24.6361 6.89433 24.6808L6.96775 24.7487C6.99597 24.7182 7.03375 24.6943 7.08304 24.6781L7.05177 24.5831ZM6.8943 24.6809C6.84955 24.7293 6.8299 24.7931 6.8299 24.866H6.9299C6.9299 24.8111 6.94435 24.7741 6.96778 24.7487L6.8943 24.6809ZM6.8299 24.866C6.8299 24.9677 6.86861 25.0501 6.94839 25.1053L7.00531 25.0231C6.95583 24.9888 6.9299 24.9391 6.9299 24.866H6.8299ZM6.94891 25.1057C7.02449 25.1566 7.11767 25.1802 7.22507 25.1802V25.0802C7.1322 25.0802 7.0599 25.0599 7.00479 25.0227L6.94891 25.1057ZM8.66408 25.2432L8.63672 25.285L8.63672 25.285L8.66408 25.2432ZM8.41053 24.0681L8.36552 24.0463L8.36546 24.0465L8.41053 24.0681ZM8.66835 23.7687L8.69564 23.8106L8.69571 23.8106L8.66835 23.7687ZM9.59413 23.903L9.63377 23.8725L9.63377 23.8725L9.59413 23.903ZM9.70386 24.1714V24.2214H9.76128L9.75338 24.1646L9.70386 24.1714ZM9.45244 24.1714L9.40401 24.1839L9.41367 24.2214H9.45244V24.1714ZM9.3246 23.9733L9.29132 24.0106L9.29176 24.011L9.3246 23.9733ZM8.80258 23.9626L8.83096 24.0038L8.83104 24.0037L8.80258 23.9626ZM8.63106 24.1768L8.5854 24.1564L8.58532 24.1566L8.63106 24.1768ZM8.62999 24.8298L8.58396 24.8494L8.58409 24.8496L8.62999 24.8298ZM8.80045 25.0482L8.77154 25.089L8.77172 25.0891L8.80045 25.0482ZM9.2383 25.0919L9.21868 25.0459L9.21868 25.0459L9.2383 25.0919ZM9.3736 24.9939L9.41139 25.0266L9.41139 25.0266L9.3736 24.9939ZM9.45244 24.8405V24.7905H9.41385L9.40407 24.8278L9.45244 24.8405ZM9.70386 24.8405L9.75332 24.8478L9.76175 24.7905H9.70386V24.8405ZM9.59839 25.1015L9.5579 25.0721L9.55785 25.0722L9.59839 25.1015ZM9.37786 25.2847L9.39994 25.3296L9.40008 25.3295L9.37786 25.2847ZM9.06039 25.3018C8.91512 25.3018 8.79288 25.2676 8.69145 25.2013L8.63672 25.285C8.75688 25.3636 8.89884 25.4018 9.06039 25.4018V25.3018ZM8.69145 25.2013C8.58889 25.1343 8.50964 25.0418 8.45367 24.9226L8.36314 24.9651C8.42649 25.1 8.51768 25.2072 8.63672 25.285L8.69145 25.2013ZM8.45367 24.9226C8.3976 24.8031 8.36891 24.6653 8.36891 24.5081H8.26891C8.26891 24.6776 8.29989 24.8303 8.36314 24.9651L8.45367 24.9226ZM8.36891 24.5081C8.36891 24.3481 8.3983 24.209 8.4556 24.0898L8.36546 24.0465C8.30061 24.1814 8.26891 24.3357 8.26891 24.5081H8.36891ZM8.45555 24.0899C8.51371 23.9695 8.5938 23.877 8.69564 23.8106L8.64105 23.7269C8.52272 23.804 8.43094 23.911 8.36552 24.0463L8.45555 24.0899ZM8.69571 23.8106C8.79744 23.7441 8.91695 23.7101 9.05613 23.7101V23.6101C8.89985 23.6101 8.76084 23.6485 8.64098 23.7269L8.69571 23.8106ZM9.05613 23.7101C9.1649 23.7101 9.26131 23.7302 9.34626 23.7694L9.38816 23.6786C9.28845 23.6326 9.17747 23.6101 9.05613 23.6101V23.7101ZM9.34626 23.7694C9.43163 23.8088 9.50072 23.8635 9.55448 23.9334L9.63377 23.8725C9.56964 23.7891 9.48745 23.7244 9.38816 23.6786L9.34626 23.7694ZM9.55448 23.9334C9.60779 24.0028 9.64124 24.084 9.65433 24.1783L9.75338 24.1646C9.73807 24.0543 9.69836 23.9566 9.63377 23.8725L9.55448 23.9334ZM9.70386 24.1214H9.45244V24.2214H9.70386V24.1214ZM9.50086 24.159C9.47883 24.0733 9.43003 23.9988 9.35743 23.9356L9.29176 24.011C9.35126 24.0628 9.38769 24.1204 9.40401 24.1839L9.50086 24.159ZM9.35786 23.936C9.28113 23.8676 9.18008 23.8359 9.06039 23.8359V23.9359C9.16229 23.9359 9.23738 23.9625 9.29133 24.0106L9.35786 23.936ZM9.06039 23.8359C8.95318 23.8359 8.85711 23.8641 8.77412 23.9215L8.83104 24.0037C8.89578 23.9589 8.97158 23.9359 9.06039 23.9359V23.8359ZM8.7742 23.9215C8.69249 23.9778 8.6298 24.0569 8.5854 24.1564L8.67672 24.1971C8.7147 24.112 8.76636 24.0483 8.83096 24.0038L8.7742 23.9215ZM8.58532 24.1566C8.54145 24.2559 8.52033 24.3706 8.52033 24.4996H8.62033C8.62033 24.3814 8.6397 24.2809 8.67679 24.197L8.58532 24.1566ZM8.52033 24.4996C8.52033 24.6311 8.54102 24.7481 8.58396 24.8494L8.67602 24.8103C8.63942 24.724 8.62033 24.6208 8.62033 24.4996H8.52033ZM8.58409 24.8496C8.62769 24.9506 8.68991 25.0312 8.77154 25.089L8.82936 25.0074C8.76468 24.9616 8.71326 24.8965 8.6759 24.81L8.58409 24.8496ZM8.77172 25.0891C8.85485 25.1475 8.95177 25.176 9.06039 25.176V25.076C8.97014 25.076 8.89377 25.0526 8.82917 25.0073L8.77172 25.0891ZM9.06039 25.176C9.13161 25.176 9.19771 25.1636 9.25792 25.1379L9.21868 25.0459C9.17236 25.0657 9.11985 25.076 9.06039 25.076V25.176ZM9.25792 25.1379C9.31798 25.1123 9.36935 25.0751 9.41139 25.0266L9.33582 24.9611C9.30399 24.9979 9.26516 25.0261 9.21868 25.0459L9.25792 25.1379ZM9.41139 25.0266C9.45379 24.9777 9.48342 24.9195 9.5008 24.8531L9.40407 24.8278C9.3902 24.8808 9.36727 24.9248 9.33582 24.9611L9.41139 25.0266ZM9.45244 24.8905H9.70386V24.7905H9.45244V24.8905ZM9.65439 24.8332C9.64133 24.922 9.60918 25.0014 9.5579 25.0721L9.63887 25.1308C9.69981 25.0467 9.73797 24.9521 9.75332 24.8478L9.65439 24.8332ZM9.55785 25.0722C9.50759 25.1418 9.44059 25.1978 9.35564 25.2399L9.40008 25.3295C9.49837 25.2808 9.57839 25.2146 9.63892 25.1308L9.55785 25.0722ZM9.35578 25.2399C9.27294 25.2806 9.17493 25.3018 9.06039 25.3018V25.4018C9.18733 25.4018 9.30097 25.3783 9.39994 25.3296L9.35578 25.2399ZM10.783 23.6814H10.833V23.6314H10.783V23.6814ZM10.783 23.8945V23.9445H10.833V23.8945H10.783ZM9.93504 23.8945H9.88504V23.9445H9.93504V23.8945ZM9.93504 23.6814V23.6314H9.88504V23.6814H9.93504ZM10.1822 23.2893V23.2393H10.1322V23.2893H10.1822ZM10.4336 23.2893H10.4836V23.2393H10.4336V23.2893ZM10.4645 25.0088L10.4212 25.0339L10.4219 25.0349L10.4645 25.0088ZM10.5455 25.0791L10.5281 25.126L10.5294 25.1264L10.5455 25.0791ZM10.7191 25.0919L10.727 25.1413L10.7289 25.1409L10.7191 25.0919ZM10.7617 25.0834L10.8105 25.0723L10.7997 25.0248L10.7519 25.0343L10.7617 25.0834ZM10.8129 25.3092L10.8304 25.356L10.8713 25.3407L10.8616 25.2982L10.8129 25.3092ZM10.7415 25.3284L10.7313 25.2795L10.7302 25.2797L10.7415 25.3284ZM10.4166 25.2932L10.396 25.3388L10.3961 25.3389L10.4166 25.2932ZM10.2482 25.1537L10.2074 25.1825L10.2076 25.1828L10.2482 25.1537ZM10.733 23.6814V23.8945H10.833V23.6814H10.733ZM10.783 23.8445H9.93504V23.9445H10.783V23.8445ZM9.98504 23.8945V23.6814H9.88504V23.8945H9.98504ZM9.93504 23.7314H10.783V23.6314H9.93504V23.7314ZM10.1822 23.3393H10.4336V23.2393H10.1822V23.3393ZM10.3836 23.2893V24.849H10.4836V23.2893H10.3836ZM10.3836 24.849C10.3836 24.9232 10.3941 24.987 10.4213 25.0339L10.5078 24.9837C10.4937 24.9595 10.4836 24.9168 10.4836 24.849H10.3836ZM10.4219 25.0349C10.448 25.0776 10.4832 25.1094 10.5281 25.126L10.5628 25.0322C10.5424 25.0247 10.5236 25.0096 10.5072 24.9827L10.4219 25.0349ZM10.5294 25.1264C10.5682 25.1397 10.6088 25.1462 10.6509 25.1462V25.0462C10.6192 25.0462 10.5895 25.0413 10.5616 25.0318L10.5294 25.1264ZM10.6509 25.1462C10.68 25.1462 10.7057 25.1447 10.727 25.1413L10.7112 25.0425C10.6971 25.0448 10.6772 25.0462 10.6509 25.0462V25.1462ZM10.7289 25.1409C10.7467 25.1374 10.7609 25.1345 10.7715 25.1324L10.7519 25.0343C10.7413 25.0365 10.7271 25.0393 10.7093 25.0429L10.7289 25.1409ZM10.713 25.0944L10.7641 25.3203L10.8616 25.2982L10.8105 25.0723L10.713 25.0944ZM10.7953 25.2624C10.7817 25.2675 10.7608 25.2733 10.7313 25.2795L10.7517 25.3773C10.7833 25.3707 10.8099 25.3637 10.8304 25.356L10.7953 25.2624ZM10.7302 25.2797C10.7047 25.2856 10.6701 25.2891 10.6254 25.2891V25.3891C10.6744 25.3891 10.7172 25.3854 10.7528 25.3771L10.7302 25.2797ZM10.6254 25.2891C10.5618 25.2891 10.4991 25.2754 10.437 25.2476L10.3961 25.3389C10.4704 25.3721 10.5469 25.3891 10.6254 25.3891V25.2891ZM10.4372 25.2477C10.378 25.2209 10.3287 25.1802 10.2889 25.1246L10.2076 25.1828C10.2572 25.2522 10.3202 25.3045 10.396 25.3388L10.4372 25.2477ZM10.2891 25.1249C10.2523 25.0727 10.2322 25.0046 10.2322 24.9172H10.1322C10.1322 25.0201 10.1561 25.1097 10.2074 25.1825L10.2891 25.1249ZM10.2322 24.9172V23.2893H10.1322V24.9172H10.2322ZM13.7692 23.1359H13.8192V23.0859H13.7692V23.1359ZM13.7692 25.3177V25.3677H13.8192V25.3177H13.7692ZM13.5135 25.3177L13.4724 25.3463L13.4874 25.3677H13.5135V25.3177ZM12.3246 23.6047L12.3657 23.5762L12.3508 23.5547H12.3246V23.6047ZM12.3033 23.6047V23.5547H12.2533V23.6047H12.3033ZM12.3033 25.3177V25.3677H12.3533V25.3177H12.3033ZM12.0391 25.3177H11.9891V25.3677H12.0391V25.3177ZM12.0391 23.1359V23.0859H11.9891V23.1359H12.0391ZM12.2948 23.1359L12.3358 23.1074L12.3209 23.0859H12.2948V23.1359ZM13.4879 24.8533L13.4469 24.8818L13.4618 24.9033H13.4879V24.8533ZM13.5093 24.8533V24.9033H13.5593V24.8533H13.5093ZM13.5093 23.1359V23.0859H13.4593V23.1359H13.5093ZM13.7192 23.1359V25.3177H13.8192V23.1359H13.7192ZM13.7692 25.2677H13.5135V25.3677H13.7692V25.2677ZM13.5546 25.2892L12.3657 23.5762L12.2835 23.6332L13.4724 25.3463L13.5546 25.2892ZM12.3246 23.5547H12.3033V23.6547H12.3246V23.5547ZM12.2533 23.6047V25.3177H12.3533V23.6047H12.2533ZM12.3033 25.2677H12.0391V25.3677H12.3033V25.2677ZM12.0891 25.3177V23.1359H11.9891V25.3177H12.0891ZM12.0391 23.1859H12.2948V23.0859H12.0391V23.1859ZM12.2537 23.1645L13.4469 24.8818L13.529 24.8247L12.3358 23.1074L12.2537 23.1645ZM13.4879 24.9033H13.5093V24.8033H13.4879V24.9033ZM13.5593 24.8533V23.1359H13.4593V24.8533H13.5593ZM13.5093 23.1859H13.7692V23.0859H13.5093V23.1859ZM14.463 25.2975L14.4417 25.3427L14.442 25.3429L14.463 25.2975ZM14.2617 25.126L14.2199 25.1535L14.22 25.1537L14.2617 25.126ZM14.2425 24.6253L14.2847 24.6521L14.2848 24.6518L14.2425 24.6253ZM14.5951 24.4122L14.6058 24.4611L14.6061 24.461L14.5951 24.4122ZM14.822 24.3717L14.8156 24.3221L14.8155 24.3221L14.822 24.3717ZM15.0639 24.343L15.069 24.3927L15.0695 24.3926L15.0639 24.343ZM15.2002 24.3078L15.1758 24.2642L15.1753 24.2645L15.2002 24.3078ZM15.1576 23.969L15.1218 24.0039L15.122 24.0042L15.1576 23.969ZM14.6164 23.9605L14.6469 24.0001L14.6469 24.0001L14.6164 23.9605ZM14.4726 24.1288L14.4558 24.1759L14.4987 24.1913L14.5179 24.1499L14.4726 24.1288ZM14.234 24.0436L14.188 24.0239L14.167 24.0728L14.2171 24.0907L14.234 24.0436ZM14.4044 23.8114L14.4352 23.8508L14.4352 23.8507L14.4044 23.8114ZM14.6388 23.6942L14.6514 23.7426L14.6517 23.7425L14.6388 23.6942ZM15.0713 23.6793L15.0621 23.7284L15.0627 23.7285L15.0713 23.6793ZM15.2705 23.7549L15.2448 23.7978L15.245 23.7979L15.2705 23.7549ZM15.4314 23.9285L15.3876 23.9527L15.3876 23.9527L15.4314 23.9285ZM15.4953 25.3177V25.3677H15.5453V25.3177H15.4953ZM15.2439 25.3177H15.1939V25.3677H15.2439V25.3177ZM15.2439 25.0962H15.2939V25.0462H15.2439V25.0962ZM15.2311 25.0962V25.0462H15.1997L15.186 25.0745L15.2311 25.0962ZM15.1459 25.2101L15.1816 25.2452L15.1816 25.2452L15.1459 25.2101ZM14.9871 25.3135L14.9674 25.2676L14.9674 25.2676L14.9871 25.3135ZM15.0351 25.0717L15.0104 25.0282L15.0102 25.0283L15.0351 25.0717ZM15.1906 24.9204L15.1473 24.8955L15.1471 24.8958L15.1906 24.9204ZM15.2439 24.4953H15.2939V24.3572L15.2055 24.4633L15.2439 24.4953ZM15.1736 24.5305L15.1871 24.5786L15.1877 24.5784L15.1736 24.5305ZM15.05 24.5571L15.0576 24.6065L15.0582 24.6064L15.05 24.5571ZM14.9147 24.5763L14.9204 24.626L14.9211 24.6259L14.9147 24.5763ZM14.8092 24.5891L14.8157 24.6386L14.8158 24.6386L14.8092 24.5891ZM14.626 24.6306L14.6416 24.6781L14.642 24.678L14.626 24.6306ZM14.4896 24.7148L14.4529 24.6808L14.4529 24.6809L14.4896 24.7148ZM14.5354 25.0642L14.507 25.1053L14.5075 25.1057L14.5354 25.0642ZM14.7453 25.3061C14.648 25.3061 14.5612 25.2878 14.484 25.2521L14.442 25.3429C14.5338 25.3853 14.6352 25.4061 14.7453 25.4061V25.3061ZM14.4843 25.2523C14.4076 25.2162 14.3477 25.1649 14.3033 25.0983L14.22 25.1537C14.275 25.2362 14.3493 25.2993 14.4417 25.3427L14.4843 25.2523ZM14.3034 25.0984C14.26 25.0327 14.2371 24.9518 14.2371 24.8533H14.1371C14.1371 24.9678 14.1639 25.0687 14.2199 25.1535L14.3034 25.0984ZM14.2371 24.8533C14.2371 24.7657 14.2544 24.6999 14.2847 24.6521L14.2002 24.5985C14.1567 24.6671 14.1371 24.7533 14.1371 24.8533H14.2371ZM14.2848 24.6518C14.3171 24.6003 14.3601 24.5601 14.4143 24.5308L14.3668 24.4428C14.2975 24.4802 14.2417 24.5324 14.2001 24.5987L14.2848 24.6518ZM14.4143 24.5308C14.4717 24.4998 14.5354 24.4765 14.6058 24.4611L14.5844 24.3634C14.5057 24.3806 14.433 24.407 14.3668 24.4428L14.4143 24.5308ZM14.6061 24.461C14.6799 24.4443 14.7541 24.431 14.8285 24.4213L14.8155 24.3221C14.738 24.3323 14.6608 24.3461 14.5841 24.3634L14.6061 24.461ZM14.8284 24.4213C14.9276 24.4086 15.0078 24.399 15.069 24.3927L15.0587 24.2932C14.9963 24.2997 14.9153 24.3093 14.8156 24.3221L14.8284 24.4213ZM15.0695 24.3926C15.1337 24.3853 15.1876 24.3728 15.2251 24.3512L15.1753 24.2645C15.156 24.2755 15.119 24.2864 15.0582 24.2933L15.0695 24.3926ZM15.2247 24.3514C15.2732 24.3242 15.2939 24.2766 15.2939 24.2226H15.1939C15.1939 24.2495 15.1855 24.2587 15.1758 24.2642L15.2247 24.3514ZM15.2939 24.2226V24.2141H15.1939V24.2226H15.2939ZM15.2939 24.2141C15.2939 24.0997 15.2624 24.0039 15.1932 23.9339L15.122 24.0042C15.1679 24.0506 15.1939 24.1182 15.1939 24.2141H15.2939ZM15.1934 23.9341C15.1238 23.8628 15.0222 23.8317 14.8987 23.8317V23.9317C15.0068 23.9317 15.0778 23.9588 15.1218 24.0039L15.1934 23.9341ZM14.8987 23.8317C14.7719 23.8317 14.6657 23.8594 14.5859 23.9209L14.6469 24.0001C14.7035 23.9565 14.7855 23.9317 14.8987 23.9317V23.8317ZM14.5859 23.9209C14.5132 23.9769 14.4592 24.0389 14.4272 24.1078L14.5179 24.1499C14.5414 24.0994 14.5832 24.0492 14.6469 24.0001L14.5859 23.9209ZM14.4894 24.0817L14.2508 23.9965L14.2171 24.0907L14.4558 24.1759L14.4894 24.0817ZM14.2799 24.0633C14.3199 23.9701 14.372 23.9 14.4352 23.8508L14.3737 23.7719C14.2948 23.8335 14.2333 23.9183 14.188 24.0239L14.2799 24.0633ZM14.4352 23.8507C14.5018 23.7987 14.5738 23.7628 14.6514 23.7426L14.6262 23.6458C14.5348 23.6696 14.4505 23.7118 14.3736 23.772L14.4352 23.8507ZM14.6517 23.7425C14.733 23.7208 14.8125 23.7101 14.8902 23.7101V23.6101C14.8032 23.6101 14.715 23.6221 14.6259 23.6459L14.6517 23.7425ZM14.8902 23.7101C14.9389 23.7101 14.9961 23.716 15.0621 23.7284L15.0805 23.6301C15.0102 23.6169 14.9466 23.6101 14.8902 23.6101V23.7101ZM15.0627 23.7285C15.1251 23.7395 15.1858 23.7624 15.2448 23.7978L15.2963 23.712C15.2274 23.6707 15.1553 23.6432 15.0799 23.63L15.0627 23.7285ZM15.245 23.7979C15.3007 23.8309 15.3485 23.8817 15.3876 23.9527L15.4752 23.9044C15.429 23.8206 15.3696 23.7555 15.296 23.7119L15.245 23.7979ZM15.3876 23.9527C15.4247 24.02 15.4453 24.1144 15.4453 24.2396H15.5453C15.5453 24.1049 15.5233 23.9919 15.4752 23.9044L15.3876 23.9527ZM15.4453 24.2396V25.3177H15.5453V24.2396H15.4453ZM15.4953 25.2677H15.2439V25.3677H15.4953V25.2677ZM15.2939 25.3177V25.0962H15.1939V25.3177H15.2939ZM15.2439 25.0462H15.2311V25.1462H15.2439V25.0462ZM15.186 25.0745C15.1722 25.1034 15.1477 25.137 15.1102 25.1751L15.1816 25.2452C15.2236 25.2024 15.256 25.1599 15.2762 25.1178L15.186 25.0745ZM15.1102 25.1751C15.076 25.2099 15.029 25.2411 14.9674 25.2676L15.0069 25.3594C15.0774 25.3291 15.1362 25.2914 15.1816 25.2452L15.1102 25.1751ZM14.9674 25.2676C14.9093 25.2926 14.8358 25.3061 14.7453 25.3061V25.4061C14.8452 25.4061 14.9329 25.3912 15.0069 25.3594L14.9674 25.2676ZM14.7837 25.1802C14.8895 25.1802 14.9824 25.1594 15.0599 25.115L15.0102 25.0283C14.9514 25.062 14.8767 25.0802 14.7837 25.0802V25.1802ZM15.0598 25.1151C15.1356 25.0721 15.1944 25.0155 15.2342 24.9449L15.1471 24.8958C15.1172 24.9488 15.0724 24.993 15.0104 25.0282L15.0598 25.1151ZM15.234 24.9453C15.2736 24.8763 15.2939 24.8027 15.2939 24.7254H15.1939C15.1939 24.7845 15.1786 24.8409 15.1473 24.8955L15.234 24.9453ZM15.2939 24.7254V24.4953H15.1939V24.7254H15.2939ZM15.2055 24.4633C15.2064 24.4622 15.2047 24.4646 15.196 24.469C15.1878 24.4731 15.1759 24.4777 15.1595 24.4825L15.1877 24.5784C15.2075 24.5726 15.2254 24.566 15.2407 24.5584C15.2554 24.551 15.2708 24.5412 15.2823 24.5273L15.2055 24.4633ZM15.1601 24.4823C15.1267 24.4917 15.0874 24.5002 15.0418 24.5078L15.0582 24.6064C15.1064 24.5984 15.1494 24.5892 15.1871 24.5786L15.1601 24.4823ZM15.0424 24.5077C14.9966 24.5147 14.9519 24.5211 14.9083 24.5267L14.9211 24.6259C14.9656 24.6201 15.0111 24.6137 15.0576 24.6065L15.0424 24.5077ZM14.909 24.5266C14.8655 24.5316 14.8301 24.5359 14.8027 24.5395L14.8158 24.6386C14.8424 24.6351 14.8772 24.6309 14.9204 24.6259L14.909 24.5266ZM14.8028 24.5395C14.7345 24.5484 14.6702 24.5629 14.61 24.5832L14.642 24.678C14.6954 24.6599 14.7533 24.6468 14.8157 24.6386L14.8028 24.5395ZM14.6104 24.5831C14.5474 24.6038 14.4943 24.6361 14.4529 24.6808L14.5263 24.7487C14.5546 24.7182 14.5923 24.6943 14.6416 24.6781L14.6104 24.5831ZM14.4529 24.6809C14.4081 24.7293 14.3885 24.7931 14.3885 24.866H14.4885C14.4885 24.8111 14.5029 24.7741 14.5264 24.7487L14.4529 24.6809ZM14.3885 24.866C14.3885 24.9677 14.4272 25.0501 14.507 25.1053L14.5639 25.0231C14.5144 24.9888 14.4885 24.9391 14.4885 24.866H14.3885ZM14.5075 25.1057C14.5831 25.1566 14.6763 25.1802 14.7837 25.1802V25.0802C14.6908 25.0802 14.6185 25.0599 14.5634 25.0227L14.5075 25.1057ZM16.6659 23.6814H16.7159V23.6314H16.6659V23.6814ZM16.6659 23.8945V23.9445H16.7159V23.8945H16.6659ZM15.8178 23.8945H15.7678V23.9445H15.8178V23.8945ZM15.8178 23.6814V23.6314H15.7678V23.6814H15.8178ZM16.065 23.2893V23.2393H16.015V23.2893H16.065ZM16.3164 23.2893H16.3664V23.2393H16.3164V23.2893ZM16.3473 25.0088L16.3041 25.0339L16.3047 25.0349L16.3473 25.0088ZM16.4283 25.0791L16.411 25.126L16.4122 25.1264L16.4283 25.0791ZM16.6019 25.0919L16.6098 25.1413L16.6117 25.1409L16.6019 25.0919ZM16.6446 25.0834L16.6933 25.0723L16.6826 25.0248L16.6347 25.0343L16.6446 25.0834ZM16.6957 25.3092L16.7132 25.356L16.7541 25.3407L16.7445 25.2982L16.6957 25.3092ZM16.6243 25.3284L16.6141 25.2795L16.613 25.2797L16.6243 25.3284ZM16.2994 25.2932L16.2788 25.3388L16.2789 25.3389L16.2994 25.2932ZM16.1311 25.1537L16.0902 25.1825L16.0904 25.1828L16.1311 25.1537ZM16.6159 23.6814V23.8945H16.7159V23.6814H16.6159ZM16.6659 23.8445H15.8178V23.9445H16.6659V23.8445ZM15.8678 23.8945V23.6814H15.7678V23.8945H15.8678ZM15.8178 23.7314H16.6659V23.6314H15.8178V23.7314ZM16.065 23.3393H16.3164V23.2393H16.065V23.3393ZM16.2664 23.2893V24.849H16.3664V23.2893H16.2664ZM16.2664 24.849C16.2664 24.9232 16.2769 24.987 16.3041 25.0339L16.3906 24.9837C16.3766 24.9595 16.3664 24.9168 16.3664 24.849H16.2664ZM16.3047 25.0349C16.3308 25.0776 16.366 25.1094 16.411 25.126L16.4456 25.0322C16.4252 25.0247 16.4065 25.0096 16.39 24.9827L16.3047 25.0349ZM16.4122 25.1264C16.451 25.1397 16.4916 25.1462 16.5338 25.1462V25.0462C16.502 25.0462 16.4724 25.0413 16.4444 25.0318L16.4122 25.1264ZM16.5338 25.1462C16.5629 25.1462 16.5885 25.1447 16.6098 25.1413L16.594 25.0425C16.5799 25.0448 16.5601 25.0462 16.5338 25.0462V25.1462ZM16.6117 25.1409C16.6295 25.1374 16.6437 25.1345 16.6544 25.1324L16.6347 25.0343C16.6241 25.0365 16.6099 25.0393 16.5921 25.0429L16.6117 25.1409ZM16.5958 25.0944L16.6469 25.3203L16.7445 25.2982L16.6933 25.0723L16.5958 25.0944ZM16.6781 25.2624C16.6646 25.2675 16.6436 25.2733 16.6141 25.2795L16.6346 25.3773C16.6661 25.3707 16.6927 25.3637 16.7132 25.356L16.6781 25.2624ZM16.613 25.2797C16.5875 25.2856 16.5529 25.2891 16.5082 25.2891V25.3891C16.5572 25.3891 16.6 25.3854 16.6356 25.3771L16.613 25.2797ZM16.5082 25.2891C16.4446 25.2891 16.3819 25.2754 16.3198 25.2476L16.2789 25.3389C16.3532 25.3721 16.4298 25.3891 16.5082 25.3891V25.2891ZM16.32 25.2477C16.2608 25.2209 16.2115 25.1802 16.1717 25.1246L16.0904 25.1828C16.1401 25.2522 16.203 25.3045 16.2788 25.3388L16.32 25.2477ZM16.1719 25.1249C16.1352 25.0727 16.115 25.0046 16.115 24.9172H16.015C16.015 25.0201 16.0389 25.1097 16.0902 25.1825L16.1719 25.1249ZM16.115 24.9172V23.2893H16.015V24.9172H16.115ZM17.0441 25.3177H16.9941V25.3677H17.0441V25.3177ZM17.0441 23.6814V23.6314H16.9941V23.6814H17.0441ZM17.2955 23.6814H17.3455V23.6314H17.2955V23.6814ZM17.2955 25.3177V25.3677H17.3455V25.3177H17.2955ZM17.0451 23.3586L17.0105 23.3947L17.0109 23.395L17.0451 23.3586ZM17.0451 23.1178L17.0109 23.0814L17.0105 23.0817L17.0451 23.1178ZM17.2976 23.1178L17.263 23.1539L17.2634 23.1543L17.2976 23.1178ZM17.2976 23.3586L17.2634 23.3222L17.263 23.3225L17.2976 23.3586ZM17.0941 25.3177V23.6814H16.9941V25.3177H17.0941ZM17.0441 23.7314H17.2955V23.6314H17.0441V23.7314ZM17.2455 23.6814V25.3177H17.3455V23.6814H17.2455ZM17.2955 25.2677H17.0441V25.3677H17.2955V25.2677ZM17.1719 23.3587C17.1355 23.3587 17.1055 23.3468 17.0794 23.3222L17.0109 23.395C17.0557 23.4372 17.1102 23.4587 17.1719 23.4587V23.3587ZM17.0797 23.3225C17.0544 23.2982 17.0429 23.271 17.0429 23.2382H16.9429C16.9429 23.2991 16.9662 23.3522 17.0105 23.3947L17.0797 23.3225ZM17.0429 23.2382C17.0429 23.2054 17.0544 23.1782 17.0797 23.1539L17.0105 23.0817C16.9662 23.1242 16.9429 23.1773 16.9429 23.2382H17.0429ZM17.0794 23.1543C17.1055 23.1296 17.1355 23.1177 17.1719 23.1177V23.0177C17.1102 23.0177 17.0557 23.0392 17.0109 23.0814L17.0794 23.1543ZM17.1719 23.1177C17.2082 23.1177 17.2377 23.1296 17.263 23.1539L17.3322 23.0817C17.2879 23.0393 17.2336 23.0177 17.1719 23.0177V23.1177ZM17.2634 23.1543C17.2893 23.1786 17.3009 23.2057 17.3009 23.2382H17.4009C17.4009 23.1769 17.377 23.1238 17.3319 23.0814L17.2634 23.1543ZM17.3009 23.2382C17.3009 23.2707 17.2893 23.2978 17.2634 23.3222L17.3319 23.395C17.377 23.3526 17.4009 23.2995 17.4009 23.2382H17.3009ZM17.263 23.3225C17.2377 23.3468 17.2082 23.3587 17.1719 23.3587V23.4587C17.2336 23.4587 17.2879 23.4371 17.3322 23.3947L17.263 23.3225ZM19.094 23.6814L19.1409 23.6987L19.1658 23.6314H19.094V23.6814ZM18.4889 25.3177V25.3677H18.5237L18.5358 25.3351L18.4889 25.3177ZM18.2332 25.3177L18.1863 25.3351L18.1984 25.3677H18.2332V25.3177ZM17.6281 23.6814V23.6314H17.5563L17.5812 23.6987L17.6281 23.6814ZM17.9009 23.6814L17.9481 23.665L17.9365 23.6314H17.9009V23.6814ZM18.3526 24.9854L18.3053 25.0017L18.317 25.0354H18.3526V24.9854ZM18.3696 24.9854V25.0354H18.4052L18.4169 25.0017L18.3696 24.9854ZM18.8213 23.6814V23.6314H18.7857L18.7741 23.665L18.8213 23.6814ZM19.0471 23.664L18.442 25.3004L18.5358 25.3351L19.1409 23.6987L19.0471 23.664ZM18.4889 25.2677H18.2332V25.3677H18.4889V25.2677ZM18.2801 25.3004L17.675 23.664L17.5812 23.6987L18.1863 25.3351L18.2801 25.3004ZM17.6281 23.7314H17.9009V23.6314H17.6281V23.7314ZM17.8536 23.6978L18.3053 25.0017L18.3998 24.969L17.9481 23.665L17.8536 23.6978ZM18.3526 25.0354H18.3696V24.9354H18.3526V25.0354ZM18.4169 25.0017L18.8686 23.6978L18.7741 23.665L18.3224 24.969L18.4169 25.0017ZM18.8213 23.7314H19.094V23.6314H18.8213V23.7314ZM19.6454 25.2474L19.619 25.29L19.6194 25.2901L19.6454 25.2474ZM19.3822 24.9534L19.3372 24.9752L19.3373 24.9755L19.3822 24.9534ZM19.3822 24.0692L19.3371 24.0475L19.3371 24.0476L19.3822 24.0692ZM19.64 23.7687L19.6673 23.8106L19.6674 23.8106L19.64 23.7687ZM20.2803 23.7027L20.2965 23.6554L20.2965 23.6554L20.2803 23.7027ZM20.5072 23.8412L20.473 23.8777L20.4732 23.8779L20.5072 23.8412ZM20.6702 24.0926L20.7168 24.0745L20.7168 24.0745L20.6702 24.0926ZM20.7309 24.5848V24.6348H20.7809V24.5848H20.7309ZM19.4696 24.5848H19.4196V24.6348H19.4696V24.5848ZM19.4696 24.3675V24.3175H19.4196V24.3675H19.4696ZM20.4753 24.3675V24.4175H20.5253V24.3675H20.4753ZM20.4199 24.1203L20.3751 24.1427L20.3753 24.143L20.4199 24.1203ZM20.2643 23.9488L20.2377 23.9911L20.2379 23.9913L20.2643 23.9488ZM19.7679 23.9605L19.7959 24.0019L19.796 24.0019L19.7679 23.9605ZM19.6006 24.1523L19.5558 24.1301L19.5558 24.1301L19.6006 24.1523ZM19.6059 24.865L19.5611 24.8872L19.5614 24.8876L19.6059 24.865ZM19.786 25.0599L19.7608 25.1031L19.7611 25.1033L19.786 25.0599ZM20.2324 25.0983L20.2487 25.1455L20.2491 25.1454L20.2324 25.0983ZM20.3719 25.0131L20.4066 25.0491L20.4069 25.0487L20.3719 25.0131ZM20.4625 24.8703L20.476 24.8222L20.4318 24.8098L20.4157 24.8527L20.4625 24.8703ZM20.7054 24.9385L20.7531 24.9533L20.7683 24.9042L20.7189 24.8903L20.7054 24.9385ZM20.5765 25.1558L20.6122 25.1908L20.6124 25.1906L20.5765 25.1558ZM20.3527 25.3007L20.3707 25.3474L20.371 25.3473L20.3527 25.3007ZM20.0534 25.3018C19.9032 25.3018 19.7766 25.2688 19.6713 25.2047L19.6194 25.2901C19.7428 25.3653 19.8882 25.4018 20.0534 25.4018V25.3018ZM19.6717 25.2049C19.5664 25.1398 19.4849 25.0491 19.4271 24.9313L19.3373 24.9755C19.4031 25.1092 19.497 25.2145 19.619 25.29L19.6717 25.2049ZM19.4272 24.9317C19.37 24.8132 19.3406 24.6739 19.3406 24.5124H19.2406C19.2406 24.6861 19.2723 24.8408 19.3372 24.9752L19.4272 24.9317ZM19.3406 24.5124C19.3406 24.3508 19.37 24.2107 19.4273 24.0907L19.3371 24.0476C19.2723 24.1833 19.2406 24.3386 19.2406 24.5124H19.3406ZM19.4273 24.0908C19.4855 23.9698 19.5655 23.877 19.6673 23.8106L19.6127 23.7269C19.4943 23.804 19.4025 23.9114 19.3371 24.0475L19.4273 24.0908ZM19.6674 23.8106C19.7691 23.7441 19.8886 23.7101 20.0278 23.7101V23.6101C19.8715 23.6101 19.7325 23.6485 19.6127 23.7269L19.6674 23.8106ZM20.0278 23.7101C20.1074 23.7101 20.1861 23.7233 20.2641 23.75L20.2965 23.6554C20.2083 23.6252 20.1187 23.6101 20.0278 23.6101V23.7101ZM20.2641 23.75C20.3401 23.776 20.4097 23.8183 20.473 23.8777L20.5414 23.8047C20.4684 23.7363 20.3867 23.6862 20.2965 23.6554L20.2641 23.75ZM20.4732 23.8779C20.5348 23.935 20.5853 24.0119 20.6236 24.1107L20.7168 24.0745C20.6742 23.9645 20.616 23.8738 20.5412 23.8045L20.4732 23.8779ZM20.6236 24.1107C20.6612 24.2076 20.6809 24.3296 20.6809 24.4783H20.7809C20.7809 24.3215 20.7602 24.1864 20.7168 24.0745L20.6236 24.1107ZM20.6809 24.4783V24.5848H20.7809V24.4783H20.6809ZM20.7309 24.5348H19.4696V24.6348H20.7309V24.5348ZM19.5196 24.5848V24.3675H19.4196V24.5848H19.5196ZM19.4696 24.4175H20.4753V24.3175H19.4696V24.4175ZM20.5253 24.3675C20.5253 24.2683 20.5054 24.178 20.4644 24.0976L20.3753 24.143C20.4082 24.2075 20.4253 24.282 20.4253 24.3675H20.5253ZM20.4646 24.0979C20.4243 24.0174 20.3662 23.9532 20.2907 23.9063L20.2379 23.9913C20.2974 24.0282 20.343 24.0783 20.3751 24.1427L20.4646 24.0979ZM20.2909 23.9064C20.215 23.8588 20.1266 23.8359 20.0278 23.8359V23.9359C20.1108 23.9359 20.1801 23.955 20.2377 23.9911L20.2909 23.9064ZM20.0278 23.8359C19.919 23.8359 19.8223 23.8631 19.7398 23.9192L19.796 24.0019C19.8598 23.9585 19.9363 23.9359 20.0278 23.9359V23.8359ZM19.7399 23.9191C19.6602 23.973 19.5987 24.0435 19.5558 24.1301L19.6454 24.1745C19.6807 24.1033 19.7306 24.046 19.7959 24.0019L19.7399 23.9191ZM19.5558 24.1301C19.5132 24.216 19.492 24.3081 19.492 24.4058H19.592C19.592 24.3231 19.6099 24.2462 19.6454 24.1745L19.5558 24.1301ZM19.492 24.4058V24.5507H19.592V24.4058H19.492ZM19.492 24.5507C19.492 24.6798 19.5143 24.7927 19.5611 24.8872L19.6507 24.8428C19.6124 24.7654 19.592 24.6687 19.592 24.5507H19.492ZM19.5614 24.8876C19.6087 24.9807 19.6751 25.0532 19.7608 25.1031L19.8112 25.0167C19.7434 24.9772 19.6898 24.9197 19.6505 24.8423L19.5614 24.8876ZM19.7611 25.1033C19.8464 25.1523 19.9444 25.176 20.0534 25.176V25.076C19.9592 25.076 19.8789 25.0556 19.8109 25.0166L19.7611 25.1033ZM20.0534 25.176C20.1241 25.176 20.1894 25.1661 20.2487 25.1455L20.216 25.051C20.1688 25.0674 20.1148 25.076 20.0534 25.076V25.176ZM20.2491 25.1454C20.3094 25.124 20.3621 25.0919 20.4066 25.0491L20.3372 24.9771C20.3036 25.0095 20.2633 25.0342 20.2156 25.0512L20.2491 25.1454ZM20.4069 25.0487C20.4518 25.0047 20.4857 24.9508 20.5093 24.8879L20.4157 24.8527C20.3966 24.9035 20.3702 24.9447 20.3369 24.9774L20.4069 25.0487ZM20.449 24.9184L20.6919 24.9866L20.7189 24.8903L20.476 24.8222L20.449 24.9184ZM20.6576 24.9237C20.6344 24.9985 20.5955 25.0642 20.5405 25.1211L20.6124 25.1906C20.6782 25.1225 20.7252 25.0432 20.7531 24.9533L20.6576 24.9237ZM20.5407 25.1209C20.4858 25.1771 20.4174 25.2217 20.3345 25.2542L20.371 25.3473C20.4657 25.3101 20.5464 25.2581 20.6122 25.1908L20.5407 25.1209ZM20.3348 25.254C20.2526 25.2856 20.159 25.3018 20.0534 25.3018V25.4018C20.1693 25.4018 20.2753 25.384 20.3707 25.3474L20.3348 25.254Z" fill="#61DAFB"/>
</svg>
